<svg version="1.1" id="Layer_1" xmlns="http://www.w3.org/2000/svg" xmlns:xlink="http://www.w3.org/1999/xlink" x="0px" y="0px"
	 width="100%" viewBox="0 0 942 443" enable-background="new 0 0 942 443" xml:space="preserve">
<path fill="#000000" opacity="1.000000" stroke="none" 
	d="
M710.000000,444.000000 
	C473.333405,444.000000 237.166840,444.000000 1.000190,444.000000 
	C1.000127,296.333466 1.000127,148.666946 1.000063,1.000309 
	C314.999756,1.000206 628.999512,1.000206 942.999451,1.000103 
	C942.999634,148.666367 942.999634,296.332733 942.999817,443.999542 
	C865.500000,444.000000 788.000000,444.000000 710.000000,444.000000 
M43.009880,328.786713 
	C43.358566,331.061646 43.637447,333.404877 47.867496,332.927887 
	C53.176353,332.891113 58.485207,332.854309 64.625641,332.927338 
	C65.457321,332.913422 66.289009,332.899475 68.039787,332.943909 
	C73.415504,332.893005 78.791229,332.842102 85.051933,332.925323 
	C88.518860,332.925323 91.985794,332.925323 95.918915,332.925323 
	C94.090485,325.627777 92.509987,319.319763 90.946182,312.206818 
	C90.644569,310.167511 90.342957,308.128204 90.784233,305.809357 
	C90.237419,303.933105 89.690605,302.056885 89.509651,299.419556 
	C89.516045,298.581818 89.522446,297.744049 90.342644,296.871948 
	C89.881783,291.319336 88.813759,285.733337 89.116409,280.222656 
	C89.480576,273.592102 87.362831,267.867096 84.909561,261.355408 
	C84.857323,261.107483 84.805092,260.859528 85.611259,260.692291 
	C86.750977,260.675842 87.890686,260.659424 89.476402,260.809387 
	C89.849403,260.648407 89.947960,260.384796 89.930435,259.362122 
	C89.848076,258.195343 89.765709,257.028564 89.840027,255.248672 
	C89.561317,254.505676 89.282600,253.762665 89.711349,252.813019 
	C92.229469,251.387146 96.814041,251.899353 95.515701,246.265106 
	C95.489914,245.920029 95.464127,245.574951 95.750481,244.564651 
	C95.615982,244.100754 95.624161,243.372086 95.326202,243.211502 
	C86.918686,238.680481 78.838760,233.372330 68.991470,231.172653 
	C65.715240,229.797165 62.439011,228.421677 60.074837,227.011414 
	C66.433800,226.253296 72.792755,225.495163 79.665482,224.339874 
	C80.882240,221.949478 82.098991,219.559067 83.790253,216.236450 
	C79.360779,215.392166 75.661949,214.687149 71.979362,213.110138 
	C71.322067,205.477341 70.691879,197.842072 69.995491,190.212845 
	C69.670692,186.654449 69.261269,183.102280 68.814888,179.556778 
	C67.238449,167.035553 65.629448,154.518433 64.707932,141.789886 
	C68.740379,139.476517 70.054153,136.280380 67.662613,131.218613 
	C67.065392,127.792130 66.468178,124.365654 66.236153,120.231392 
	C66.031052,113.864502 66.232780,107.448746 65.475967,101.148125 
	C64.982216,97.037521 63.096439,93.094116 61.869083,88.392876 
	C61.564888,87.596252 61.260696,86.799629 61.113144,85.178230 
	C61.077038,83.781548 61.040932,82.384872 61.141720,80.344223 
	C61.168289,79.906410 61.194859,79.468605 61.872318,78.851143 
	C62.692314,77.463776 63.512310,76.076408 65.077797,74.831383 
	C66.054924,71.140793 67.337128,67.497116 67.914101,63.744999 
	C68.388557,60.659534 68.121727,57.442047 68.012772,54.288971 
	C67.831284,49.036255 67.286911,43.787403 67.306702,38.538475 
	C67.335091,31.006510 67.690933,23.474266 67.990456,15.945461 
	C68.144424,12.075194 68.479240,8.212122 68.746994,4.121794 
	C63.373634,4.121794 59.250084,4.121794 54.176807,4.036286 
	C42.000725,4.036286 29.824644,4.036286 17.094870,4.036286 
	C18.522057,6.357499 19.365236,7.728869 20.055052,9.900826 
	C20.740818,12.560420 21.426586,15.220015 22.067385,18.644297 
	C23.659786,21.803585 26.159790,24.824741 26.665785,28.149376 
	C27.927759,36.441181 29.043476,44.893978 28.791025,53.238987 
	C28.532536,61.783661 31.387489,69.074692 35.207085,76.153564 
	C36.821968,79.146423 39.783001,81.412933 42.093773,84.788437 
	C42.105888,86.858383 42.118000,88.928337 42.058662,91.792076 
	C41.701904,94.888374 41.345146,97.984680 40.991890,101.998154 
	C40.824402,108.995598 40.614323,116.001343 45.015743,122.584984 
	C45.015743,122.584984 45.164959,123.029381 45.044479,123.906746 
	C45.404690,127.595512 45.764900,131.284271 45.988914,135.733521 
	C46.050236,136.500458 46.111557,137.267410 46.068169,138.742737 
	C46.702503,140.186203 47.336842,141.629684 48.210114,143.604263 
	C48.751068,144.377792 49.292019,145.151306 49.318085,146.213028 
	C49.278465,146.781403 49.238842,147.349792 49.066833,148.853119 
	C49.393806,154.370560 49.780685,159.885391 50.020668,165.406616 
	C50.128983,167.898575 49.944763,170.403229 49.199932,173.050980 
	C46.790264,174.423508 44.380596,175.796036 41.204800,177.027924 
	C33.216900,178.259933 27.762484,183.648041 22.610182,189.066528 
	C18.630560,193.251724 15.553947,198.295593 11.913260,203.735138 
	C11.639056,204.669662 11.103073,205.612488 11.132401,206.537384 
	C11.350954,213.429871 12.002728,220.324509 11.880635,227.207153 
	C11.772799,233.286163 13.778749,239.487717 10.973688,245.478638 
	C10.016279,247.523422 9.542984,249.794891 8.272620,252.414108 
	C8.357063,255.180679 7.721412,258.237640 8.692841,260.646515 
	C10.191916,264.363770 13.612111,267.382477 14.780016,271.143799 
	C19.546007,286.493134 29.779716,298.636627 38.014557,312.627686 
	C38.332363,313.117096 38.650166,313.606537 39.042435,314.557678 
	C39.042435,314.557678 39.183220,315.003693 39.116245,315.780121 
	C40.397369,319.868439 41.678490,323.956787 42.982960,327.993164 
	C42.982960,327.993164 42.944508,328.038635 43.009880,328.786713 
M799.325134,295.470825 
	C799.257568,302.294128 799.189941,309.117401 798.594604,316.573059 
	C793.126831,317.470032 787.658997,318.367004 782.454041,319.220856 
	C782.454041,323.866089 782.454041,327.758575 782.454041,331.576660 
	C800.472290,331.576660 818.035889,331.576660 835.629150,331.576660 
	C835.629150,327.236115 835.629150,323.323792 835.629150,319.248932 
	C828.639404,318.287048 821.990479,317.372040 815.303406,316.451782 
	C815.303406,269.462646 815.303406,222.797852 815.303406,175.665405 
	C815.972046,176.438446 816.354370,176.751801 816.574890,177.153854 
	C829.880188,201.409851 842.901978,225.826187 856.537659,249.894791 
	C871.634888,276.543457 887.281799,302.880920 902.745605,329.320984 
	C903.353821,330.360870 904.512268,331.760834 905.467102,331.803223 
	C910.868652,332.042816 916.286377,331.919067 922.072266,331.919067 
	C922.072266,274.291168 922.072266,217.511612 922.072266,160.305099 
	C926.733948,159.497284 931.131226,158.933289 935.412842,157.893066 
	C937.060120,157.492889 939.536072,156.193466 939.740723,154.983414 
	C940.328308,151.509995 939.947876,147.872849 939.947876,144.444397 
	C922.149536,144.444397 905.251770,144.444397 888.000488,144.444397 
	C888.000488,147.367310 888.196838,149.870438 887.956482,152.330917 
	C887.552124,156.469269 889.397888,157.821045 893.365906,158.112656 
	C897.764038,158.435898 902.102417,159.572372 906.609497,160.380295 
	C906.609497,204.025146 906.609497,247.436340 906.609497,292.048553 
	C903.595520,285.329407 901.489380,279.536377 898.526062,274.221283 
	C886.826416,253.236969 874.950684,232.349197 862.961487,211.528503 
	C852.223389,192.880493 841.059631,174.475876 830.451660,155.755356 
	C823.889526,144.174728 824.198303,143.999771 810.955383,143.999771 
	C801.507629,143.999771 792.059937,143.999771 782.751343,143.999771 
	C780.346313,156.185730 781.343323,157.639191 792.366272,158.996338 
	C793.828735,159.176392 795.393982,159.297333 796.674133,159.927734 
	C797.629944,160.398438 798.734802,161.580826 798.855286,162.559296 
	C799.399048,166.976547 799.615845,171.434052 799.325073,176.470886 
	C799.206116,183.175674 798.977722,189.881165 799.019958,196.584946 
	C799.037842,199.432800 799.623047,202.277100 799.967773,205.500031 
	C799.967773,205.500031 799.950439,205.877045 799.325073,206.470886 
	C799.230957,226.130081 799.129333,245.789246 799.081116,265.448578 
	C799.079773,266.005981 799.647827,266.564789 799.967773,267.500000 
	C799.967773,267.500000 799.950378,267.877106 799.325012,268.470978 
	C799.206116,272.872864 798.915894,277.278687 799.017883,281.675446 
	C799.114380,285.829590 799.623047,289.974152 799.967773,294.500000 
	C799.967773,294.500000 799.950378,294.877106 799.325134,295.470825 
M698.827637,214.306030 
	C703.684875,195.567413 708.542114,176.828796 713.422180,158.001953 
	C714.620605,169.564499 715.926514,180.889603 716.931519,192.241348 
	C717.821838,202.296982 718.278137,212.390381 719.104004,222.452499 
	C720.320374,237.272034 721.651733,252.082550 723.017395,266.889221 
	C723.881470,276.257812 725.019348,285.602203 725.805176,294.976685 
	C726.407043,302.156219 726.650085,309.365814 727.046082,316.443878 
	C720.220398,317.453766 714.243896,318.337982 708.416016,319.200226 
	C708.416016,323.785980 708.416016,327.681854 708.416016,331.612549 
	C729.396851,331.612549 749.959656,331.612549 770.670166,331.612549 
	C770.670166,327.308624 770.670166,323.395142 770.670166,319.130188 
	C765.515259,318.391327 760.595276,317.867004 755.769775,316.880402 
	C754.384827,316.597229 752.412537,315.142853 752.184021,313.944305 
	C751.165955,308.604706 750.594910,303.172455 750.022827,297.756683 
	C748.599792,284.286316 747.352356,270.797028 745.869202,257.333527 
	C744.351135,243.553177 742.607361,229.797836 741.015808,216.025375 
	C739.348450,201.596191 737.712402,187.163177 736.133423,172.724091 
	C735.691833,168.685867 735.500061,164.620346 735.162476,160.155365 
	C741.454102,159.400848 747.371216,158.919769 753.185913,157.870834 
	C755.241150,157.500107 758.293152,156.079376 758.705872,154.548981 
	C759.564758,151.364212 758.965515,147.786255 758.965515,144.012863 
	C739.984314,144.012863 721.840027,143.941925 703.699280,144.165619 
	C702.432251,144.181244 700.434387,146.175537 700.050354,147.594467 
	C690.555847,182.675293 681.115601,217.771973 671.950256,252.939987 
	C669.096069,263.891602 667.068420,275.058655 664.856628,285.233490 
	C652.615662,238.705170 640.191223,191.479294 627.801819,144.386810 
	C607.945679,144.386810 588.712585,144.386810 569.001038,144.386810 
	C569.001038,146.565048 569.002991,148.367722 569.000671,150.170410 
	C568.991272,157.365189 569.001465,157.264923 576.333984,158.044556 
	C581.718689,158.617050 587.070862,159.495941 592.705261,160.275330 
	C587.422729,212.614594 582.174133,264.618225 576.945496,316.423553 
	C570.591858,317.433929 564.948853,318.331299 559.392090,319.214966 
	C559.392090,323.735291 559.392090,327.633575 559.392090,331.634705 
	C578.349060,331.634705 596.911804,331.634705 615.679382,331.634705 
	C615.679382,327.360229 615.679382,323.453247 615.679382,319.230469 
	C608.763672,318.289703 602.114807,317.385223 595.000000,316.417389 
	C595.000000,314.631042 594.912720,312.995544 595.014221,311.371857 
	C595.675232,300.797699 596.336609,290.223206 597.078430,279.654510 
	C597.692139,270.910889 598.371887,262.171326 599.102112,253.436615 
	C600.368652,238.284714 601.784729,223.144821 602.969177,207.986710 
	C603.807495,197.257385 604.278625,186.499619 605.089417,175.767822 
	C605.490173,170.461899 606.287903,165.185959 607.053833,158.631561 
	C612.249329,177.348770 616.967834,194.712372 621.893860,212.016907 
	C631.622681,246.193176 641.416992,280.351013 651.293701,314.484802 
	C654.122742,324.261780 654.294678,324.101410 664.687195,324.064819 
	C667.894592,324.053528 669.317261,323.082703 670.112488,319.815735 
	C672.573181,309.706696 675.452087,299.699249 678.182129,289.656006 
	C684.942749,264.785309 691.710938,239.916687 698.827637,214.306030 
M146.960129,296.376709 
	C147.996277,292.380829 149.163818,288.413116 150.027115,284.380219 
	C150.721390,281.136902 152.191055,279.856140 155.759598,279.905396 
	C171.582367,280.123871 187.409851,280.000031 203.235641,280.000000 
	C213.423462,280.000000 213.418091,280.001465 216.193314,290.196869 
	C216.497528,291.314484 216.956253,292.390137 217.259720,293.507935 
	C219.347992,301.200226 221.414001,308.898560 223.458481,316.488434 
	C217.322083,317.467773 211.834335,318.343567 206.371155,319.215454 
	C206.371155,323.690033 206.371155,327.589294 206.371155,331.662903 
	C225.634857,331.662903 244.526184,331.662903 263.353485,331.662903 
	C265.429260,320.419312 265.079254,319.893036 254.896759,317.432037 
	C252.673737,316.894745 250.287552,317.240845 249.287094,313.802338 
	C243.098831,292.533691 236.518219,271.379669 230.166412,250.158096 
	C219.692047,215.162857 209.326599,180.134903 198.732391,145.176147 
	C198.323059,143.825439 196.065460,142.233475 194.588608,142.148209 
	C188.611359,141.803192 182.587418,141.771378 176.615692,142.160599 
	C175.039383,142.263336 172.672760,144.004944 172.219986,145.472488 
	C167.153427,161.894547 162.460602,178.431259 157.532135,194.896698 
	C146.251404,232.584290 134.705917,270.194427 123.753883,307.976868 
	C121.895035,314.389557 119.419800,317.988464 112.520042,318.235199 
	C110.981361,318.290222 108.527214,320.244446 108.223503,321.688019 
	C107.563835,324.823425 108.020012,328.193634 108.020012,331.679688 
	C125.596794,331.679688 142.488617,331.679688 159.689041,331.679688 
	C159.689041,327.457123 159.689041,323.552399 159.689041,319.184082 
	C153.687668,318.316284 147.847565,317.471802 141.345032,316.531555 
	C143.176880,310.058472 144.998566,303.621338 146.960129,296.376709 
M418.000153,184.500000 
	C418.000153,206.329865 417.661865,228.167007 418.132812,249.986710 
	C418.396210,262.190918 419.092041,274.527130 421.213593,286.517120 
	C424.485870,305.010559 432.956879,320.607483 451.047638,328.981842 
	C461.889038,334.000397 473.477173,334.526337 485.158691,333.985229 
	C505.823517,333.028015 520.490112,322.523590 529.570801,304.503632 
	C536.756714,290.243774 539.021179,274.661896 539.007690,258.747528 
	C538.981506,227.918930 539.000000,197.090317 539.000000,166.261703 
	C539.000000,164.313324 539.000000,162.364944 539.000000,160.340439 
	C543.528625,159.461960 547.477661,158.924973 551.270752,157.841812 
	C552.690308,157.436432 554.616394,155.886993 554.800354,154.636734 
	C555.293213,151.288498 554.968445,147.819901 554.968445,144.393433 
	C537.588257,144.393433 521.024658,144.393433 504.000061,144.393433 
	C504.000061,147.247498 504.130859,149.727264 503.969421,152.187851 
	C503.727600,155.873032 504.410156,158.079498 508.989868,158.182861 
	C513.189087,158.277664 517.359741,159.634232 522.000000,160.522324 
	C522.000000,162.499100 522.000000,164.296661 522.000000,166.094223 
	C522.000000,195.589706 522.081116,225.085510 521.961487,254.580505 
	C521.911072,267.006042 520.747314,279.265472 517.215576,291.346985 
	C512.279419,308.232574 501.559143,317.741241 484.172791,319.065826 
	C470.936859,320.074158 460.251190,315.671722 452.963257,304.018951 
	C445.868286,292.674713 443.358704,279.959351 443.168854,267.064484 
	C442.668457,233.077072 442.994324,199.077408 443.008331,165.082626 
	C443.009003,163.492065 443.175232,161.901566 443.260590,160.378174 
	C448.233063,159.507858 452.684448,158.970139 456.982727,157.846649 
	C458.505798,157.448547 460.553406,155.782745 460.795868,154.417603 
	C461.361206,151.234756 460.976257,147.883118 460.976257,144.467987 
	C441.008179,144.467987 421.659790,144.467987 402.000488,144.467987 
	C402.000488,147.424042 402.183258,149.929886 401.957977,152.398499 
	C401.613434,156.174118 403.104523,157.747467 406.922974,158.123047 
	C410.612427,158.485947 414.221039,159.670746 418.000153,160.525024 
	C418.000153,168.522324 418.000153,176.011185 418.000153,184.500000 
M375.191284,287.806824 
	C372.867157,295.736359 370.622437,303.691101 368.122009,311.564636 
	C367.796539,312.589478 366.209229,313.795654 365.112457,313.896545 
	C359.182037,314.441864 353.223114,314.686310 347.271820,314.991791 
	C343.957733,315.161896 340.639923,315.334442 337.322784,315.356598 
	C329.413635,315.409424 321.503876,315.373596 313.278198,315.373596 
	C313.278198,263.807770 313.278198,212.254501 313.278198,160.140228 
	C318.587280,159.413956 323.812378,158.895508 328.942230,157.890762 
	C330.733826,157.539871 333.476959,156.221222 333.725830,154.943420 
	C334.395477,151.504837 333.954620,147.849976 333.954620,144.445343 
	C312.471375,144.445343 291.911652,144.445343 271.411652,144.445343 
	C269.922089,157.440414 270.059174,157.732895 282.227112,158.948456 
	C286.393127,159.364639 288.125641,160.760712 288.109070,165.382385 
	C287.934845,214.027756 288.004028,262.673981 287.990845,311.319977 
	C287.990356,313.092041 287.834442,314.864014 287.755981,316.530182 
	C281.571625,317.503326 275.930267,318.391022 270.463867,319.251221 
	C270.463867,323.819336 270.463867,327.711517 270.463867,331.620422 
	C309.458557,331.620422 348.018585,331.620422 386.747040,331.620422 
	C388.865295,315.407501 391.107208,299.565704 392.946899,283.677338 
	C394.066162,274.010712 393.781403,274.009491 384.312164,272.178741 
	C381.603363,271.654999 379.833740,272.319427 379.048279,275.176178 
	C377.952515,279.161469 376.695374,283.102417 375.191284,287.806824 
z"/>
<path fill="#12674A" opacity="1.000000" stroke="none" 
	d="
M698.651855,214.676636 
	C691.710938,239.916687 684.942749,264.785309 678.182129,289.656006 
	C675.452087,299.699249 672.573181,309.706696 670.112488,319.815735 
	C669.317261,323.082703 667.894592,324.053528 664.687195,324.064819 
	C654.294678,324.101410 654.122742,324.261780 651.293701,314.484802 
	C641.416992,280.351013 631.622681,246.193176 621.893860,212.016907 
	C616.967834,194.712372 612.249329,177.348770 607.053833,158.631561 
	C606.287903,165.185959 605.490173,170.461899 605.089417,175.767822 
	C604.278625,186.499619 603.807495,197.257385 602.969177,207.986710 
	C601.784729,223.144821 600.368652,238.284714 599.102112,253.436615 
	C598.371887,262.171326 597.692139,270.910889 597.078430,279.654510 
	C596.336609,290.223206 595.675232,300.797699 595.014221,311.371857 
	C594.912720,312.995544 595.000000,314.631042 595.000000,316.417389 
	C602.114807,317.385223 608.763672,318.289703 615.679382,319.230469 
	C615.679382,323.453247 615.679382,327.360229 615.679382,331.634705 
	C596.911804,331.634705 578.349060,331.634705 559.392090,331.634705 
	C559.392090,327.633575 559.392090,323.735291 559.392090,319.214966 
	C564.948853,318.331299 570.591858,317.433929 576.945496,316.423553 
	C582.174133,264.618225 587.422729,212.614594 592.705261,160.275330 
	C587.070862,159.495941 581.718689,158.617050 576.333984,158.044556 
	C569.001465,157.264923 568.991272,157.365189 569.000671,150.170410 
	C569.002991,148.367722 569.001038,146.565048 569.001038,144.386810 
	C588.712585,144.386810 607.945679,144.386810 627.801819,144.386810 
	C640.191223,191.479294 652.615662,238.705170 664.856628,285.233490 
	C667.068420,275.058655 669.096069,263.891602 671.950256,252.939987 
	C681.115601,217.771973 690.555847,182.675293 700.050354,147.594467 
	C700.434387,146.175537 702.432251,144.181244 703.699280,144.165619 
	C721.840027,143.941925 739.984314,144.012863 758.965515,144.012863 
	C758.965515,147.786255 759.564758,151.364212 758.705872,154.548981 
	C758.293152,156.079376 755.241150,157.500107 753.185913,157.870834 
	C747.371216,158.919769 741.454102,159.400848 735.162476,160.155365 
	C735.500061,164.620346 735.691833,168.685867 736.133423,172.724091 
	C737.712402,187.163177 739.348450,201.596191 741.015808,216.025375 
	C742.607361,229.797836 744.351135,243.553177 745.869202,257.333527 
	C747.352356,270.797028 748.599792,284.286316 750.022827,297.756683 
	C750.594910,303.172455 751.165955,308.604706 752.184021,313.944305 
	C752.412537,315.142853 754.384827,316.597229 755.769775,316.880402 
	C760.595276,317.867004 765.515259,318.391327 770.670166,319.130188 
	C770.670166,323.395142 770.670166,327.308624 770.670166,331.612549 
	C749.959656,331.612549 729.396851,331.612549 708.416016,331.612549 
	C708.416016,327.681854 708.416016,323.785980 708.416016,319.200226 
	C714.243896,318.337982 720.220398,317.453766 727.046082,316.443878 
	C726.650085,309.365814 726.407043,302.156219 725.805176,294.976685 
	C725.019348,285.602203 723.881470,276.257812 723.017395,266.889221 
	C721.651733,252.082550 720.320374,237.272034 719.104004,222.452499 
	C718.278137,212.390381 717.821838,202.296982 716.931519,192.241348 
	C715.926514,180.889603 714.620605,169.564499 713.422180,158.001953 
	C708.542114,176.828796 703.684875,195.567413 698.651855,214.676636 
z"/>
<path fill="#12674A" opacity="1.000000" stroke="none" 
	d="
M799.950439,205.877045 
	C799.950439,205.877045 799.967773,205.500031 799.973755,204.832642 
	C799.969971,194.735840 799.960205,185.306442 799.950439,175.877045 
	C799.615845,171.434052 799.399048,166.976547 798.855286,162.559296 
	C798.734802,161.580826 797.629944,160.398438 796.674133,159.927734 
	C795.393982,159.297333 793.828735,159.176392 792.366272,158.996338 
	C781.343323,157.639191 780.346313,156.185730 782.751343,143.999771 
	C792.059937,143.999771 801.507629,143.999771 810.955383,143.999771 
	C824.198303,143.999771 823.889526,144.174728 830.451660,155.755356 
	C841.059631,174.475876 852.223389,192.880493 862.961487,211.528503 
	C874.950684,232.349197 886.826416,253.236969 898.526062,274.221283 
	C901.489380,279.536377 903.595520,285.329407 906.609497,292.048553 
	C906.609497,247.436340 906.609497,204.025146 906.609497,160.380295 
	C902.102417,159.572372 897.764038,158.435898 893.365906,158.112656 
	C889.397888,157.821045 887.552124,156.469269 887.956482,152.330917 
	C888.196838,149.870438 888.000488,147.367310 888.000488,144.444397 
	C905.251770,144.444397 922.149536,144.444397 939.947876,144.444397 
	C939.947876,147.872849 940.328308,151.509995 939.740723,154.983414 
	C939.536072,156.193466 937.060120,157.492889 935.412842,157.893066 
	C931.131226,158.933289 926.733948,159.497284 922.072266,160.305099 
	C922.072266,217.511612 922.072266,274.291168 922.072266,331.919067 
	C916.286377,331.919067 910.868652,332.042816 905.467102,331.803223 
	C904.512268,331.760834 903.353821,330.360870 902.745605,329.320984 
	C887.281799,302.880920 871.634888,276.543457 856.537659,249.894791 
	C842.901978,225.826187 829.880188,201.409851 816.574890,177.153854 
	C816.354370,176.751801 815.972046,176.438446 815.303406,175.665405 
	C815.303406,222.797852 815.303406,269.462646 815.303406,316.451782 
	C821.990479,317.372040 828.639404,318.287048 835.629150,319.248932 
	C835.629150,323.323792 835.629150,327.236115 835.629150,331.576660 
	C818.035889,331.576660 800.472290,331.576660 782.454041,331.576660 
	C782.454041,327.758575 782.454041,323.866089 782.454041,319.220856 
	C787.658997,318.367004 793.126831,317.470032 799.098999,315.929993 
	C799.718994,308.483643 799.834717,301.680389 799.950378,294.877106 
	C799.950378,294.877106 799.967773,294.500000 799.973755,293.832581 
	C799.969971,284.735809 799.960144,276.306458 799.950378,267.877106 
	C799.950378,267.877106 799.967773,267.500000 799.973755,266.832581 
	C799.969971,246.069107 799.960205,225.973068 799.950439,205.877045 
z"/>
<path fill="#12674A" opacity="1.000000" stroke="none" 
	d="
M146.890198,296.780457 
	C144.998566,303.621338 143.176880,310.058472 141.345032,316.531555 
	C147.847565,317.471802 153.687668,318.316284 159.689041,319.184082 
	C159.689041,323.552399 159.689041,327.457123 159.689041,331.679688 
	C142.488617,331.679688 125.596794,331.679688 108.020012,331.679688 
	C108.020012,328.193634 107.563835,324.823425 108.223503,321.688019 
	C108.527214,320.244446 110.981361,318.290222 112.520042,318.235199 
	C119.419800,317.988464 121.895035,314.389557 123.753883,307.976868 
	C134.705917,270.194427 146.251404,232.584290 157.532135,194.896698 
	C162.460602,178.431259 167.153427,161.894547 172.219986,145.472488 
	C172.672760,144.004944 175.039383,142.263336 176.615692,142.160599 
	C182.587418,141.771378 188.611359,141.803192 194.588608,142.148209 
	C196.065460,142.233475 198.323059,143.825439 198.732391,145.176147 
	C209.326599,180.134903 219.692047,215.162857 230.166412,250.158096 
	C236.518219,271.379669 243.098831,292.533691 249.287094,313.802338 
	C250.287552,317.240845 252.673737,316.894745 254.896759,317.432037 
	C265.079254,319.893036 265.429260,320.419312 263.353485,331.662903 
	C244.526184,331.662903 225.634857,331.662903 206.371155,331.662903 
	C206.371155,327.589294 206.371155,323.690033 206.371155,319.215454 
	C211.834335,318.343567 217.322083,317.467773 223.458481,316.488434 
	C221.414001,308.898560 219.347992,301.200226 217.259720,293.507935 
	C216.956253,292.390137 216.497528,291.314484 216.193314,290.196869 
	C213.418091,280.001465 213.423462,280.000000 203.235641,280.000000 
	C187.409851,280.000031 171.582367,280.123871 155.759598,279.905396 
	C152.191055,279.856140 150.721390,281.136902 150.027115,284.380219 
	C149.163818,288.413116 147.996277,292.380829 146.890198,296.780457 
M181.969910,165.249771 
	C181.826004,165.166092 181.689575,165.044342 181.535187,165.013992 
	C181.451385,164.997513 181.269211,165.118942 181.245972,165.208054 
	C173.921204,193.300446 166.598434,221.393341 159.299545,249.492462 
	C158.111862,254.064789 157.030594,258.664764 155.804306,263.640808 
	C173.815979,263.640808 191.165680,263.640808 208.855286,263.640808 
	C199.937332,230.759354 191.133301,198.297958 181.969910,165.249771 
z"/>
<path fill="#12674A" opacity="1.000000" stroke="none" 
	d="
M418.000153,184.000015 
	C418.000153,176.011185 418.000153,168.522324 418.000153,160.525024 
	C414.221039,159.670746 410.612427,158.485947 406.922974,158.123047 
	C403.104523,157.747467 401.613434,156.174118 401.957977,152.398499 
	C402.183258,149.929886 402.000488,147.424042 402.000488,144.467987 
	C421.659790,144.467987 441.008179,144.467987 460.976257,144.467987 
	C460.976257,147.883118 461.361206,151.234756 460.795868,154.417603 
	C460.553406,155.782745 458.505798,157.448547 456.982727,157.846649 
	C452.684448,158.970139 448.233063,159.507858 443.260590,160.378174 
	C443.175232,161.901566 443.009003,163.492065 443.008331,165.082626 
	C442.994324,199.077408 442.668457,233.077072 443.168854,267.064484 
	C443.358704,279.959351 445.868286,292.674713 452.963257,304.018951 
	C460.251190,315.671722 470.936859,320.074158 484.172791,319.065826 
	C501.559143,317.741241 512.279419,308.232574 517.215576,291.346985 
	C520.747314,279.265472 521.911072,267.006042 521.961487,254.580505 
	C522.081116,225.085510 522.000000,195.589706 522.000000,166.094223 
	C522.000000,164.296661 522.000000,162.499100 522.000000,160.522324 
	C517.359741,159.634232 513.189087,158.277664 508.989868,158.182861 
	C504.410156,158.079498 503.727600,155.873032 503.969421,152.187851 
	C504.130859,149.727264 504.000061,147.247498 504.000061,144.393433 
	C521.024658,144.393433 537.588257,144.393433 554.968445,144.393433 
	C554.968445,147.819901 555.293213,151.288498 554.800354,154.636734 
	C554.616394,155.886993 552.690308,157.436432 551.270752,157.841812 
	C547.477661,158.924973 543.528625,159.461960 539.000000,160.340439 
	C539.000000,162.364944 539.000000,164.313324 539.000000,166.261703 
	C539.000000,197.090317 538.981506,227.918930 539.007690,258.747528 
	C539.021179,274.661896 536.756714,290.243774 529.570801,304.503632 
	C520.490112,322.523590 505.823517,333.028015 485.158691,333.985229 
	C473.477173,334.526337 461.889038,334.000397 451.047638,328.981842 
	C432.956879,320.607483 424.485870,305.010559 421.213593,286.517120 
	C419.092041,274.527130 418.396210,262.190918 418.132812,249.986710 
	C417.661865,228.167007 418.000153,206.329865 418.000153,184.000015 
z"/>
<path fill="#12674A" opacity="1.000000" stroke="none" 
	d="
M375.349304,287.434570 
	C376.695374,283.102417 377.952515,279.161469 379.048279,275.176178 
	C379.833740,272.319427 381.603363,271.654999 384.312164,272.178741 
	C393.781403,274.009491 394.066162,274.010712 392.946899,283.677338 
	C391.107208,299.565704 388.865295,315.407501 386.747040,331.620422 
	C348.018585,331.620422 309.458557,331.620422 270.463867,331.620422 
	C270.463867,327.711517 270.463867,323.819336 270.463867,319.251221 
	C275.930267,318.391022 281.571625,317.503326 287.755981,316.530182 
	C287.834442,314.864014 287.990356,313.092041 287.990845,311.319977 
	C288.004028,262.673981 287.934845,214.027756 288.109070,165.382385 
	C288.125641,160.760712 286.393127,159.364639 282.227112,158.948456 
	C270.059174,157.732895 269.922089,157.440414 271.411652,144.445343 
	C291.911652,144.445343 312.471375,144.445343 333.954620,144.445343 
	C333.954620,147.849976 334.395477,151.504837 333.725830,154.943420 
	C333.476959,156.221222 330.733826,157.539871 328.942230,157.890762 
	C323.812378,158.895508 318.587280,159.413956 313.278198,160.140228 
	C313.278198,212.254501 313.278198,263.807770 313.278198,315.373596 
	C321.503876,315.373596 329.413635,315.409424 337.322784,315.356598 
	C340.639923,315.334442 343.957733,315.161896 347.271820,314.991791 
	C353.223114,314.686310 359.182037,314.441864 365.112457,313.896545 
	C366.209229,313.795654 367.796539,312.589478 368.122009,311.564636 
	C370.622437,303.691101 372.867157,295.736359 375.349304,287.434570 
z"/>
<path fill="#4D4543" opacity="1.000000" stroke="none" 
	d="
M63.794064,332.817505 
	C58.485207,332.854309 53.176353,332.891113 47.398491,332.655579 
	C46.929482,332.383301 46.902920,331.969666 47.084496,331.612976 
	C48.512695,319.451965 43.806339,308.993103 39.053360,298.829773 
	C36.527283,293.428223 31.233566,289.289612 33.869770,282.283936 
	C34.194313,281.421509 33.328163,280.111023 33.217239,278.879333 
	C33.672188,278.541779 33.869358,278.290436 34.309135,277.833191 
	C37.724640,276.122375 40.843216,274.574921 44.135696,273.394897 
	C44.041904,277.076813 44.058117,280.446075 43.431335,283.691132 
	C42.720940,287.369110 42.805023,290.260468 47.058716,291.534424 
	C49.094837,292.144226 51.002476,293.392761 53.058361,293.660461 
	C54.698490,293.874023 56.768967,293.437988 58.055698,292.487701 
	C58.621544,292.069855 57.856529,289.619568 57.452953,288.159149 
	C55.683304,281.755493 53.824814,275.376434 52.463032,268.984741 
	C53.855896,268.952576 54.784283,268.924072 55.959961,269.096069 
	C58.395237,273.099213 62.050869,276.256836 59.397335,281.664856 
	C58.259636,283.983490 62.527512,288.150543 64.956573,288.276306 
	C64.978828,292.074707 64.936401,295.456757 64.536407,298.802551 
	C63.402348,298.187958 62.665348,297.184204 61.842274,297.107788 
	C58.863617,296.831360 55.756065,296.402252 52.909298,297.015503 
	C51.792656,297.256012 50.127651,300.559082 50.596470,301.677917 
	C54.952515,312.073700 55.923340,323.931000 63.794064,332.817505 
z"/>
<path fill="#5B5957" opacity="1.000000" stroke="none" 
	d="
M84.166946,332.791199 
	C78.791229,332.842102 73.415504,332.893005 67.503281,332.582184 
	C65.704819,330.283875 64.442863,328.347290 62.474876,325.327240 
	C67.424973,326.268066 69.285378,324.751343 68.960960,320.565063 
	C68.629913,315.630737 68.049881,311.116455 67.942345,306.590942 
	C67.779366,299.731659 67.883713,292.863403 68.012924,286.001587 
	C68.046219,284.233826 68.633209,282.481354 68.900040,280.711914 
	C69.205544,278.686005 70.049690,276.493011 69.579239,274.648163 
	C68.467964,270.290253 69.949638,267.599548 73.951088,266.043671 
	C74.374168,266.513000 74.638756,266.759064 74.897789,267.457123 
	C75.732613,274.767059 76.490845,281.636444 77.443123,288.478790 
	C78.046761,292.816040 78.939339,297.113068 79.758369,301.803772 
	C80.585449,305.765015 81.356499,309.350616 82.026726,313.370605 
	C82.672913,320.133789 83.419930,326.462494 84.166946,332.791199 
z"/>
<path fill="#655C56" opacity="1.000000" stroke="none" 
	d="
M33.013783,279.008148 
	C33.328163,280.111023 34.194313,281.421509 33.869770,282.283936 
	C31.233566,289.289612 36.527283,293.428223 39.053360,298.829773 
	C43.806339,308.993103 48.512695,319.451965 46.849289,331.397125 
	C45.269836,330.371521 44.107174,329.205078 42.944511,328.038635 
	C42.944508,328.038635 42.982960,327.993164 42.984226,327.581909 
	C41.718067,323.115021 40.450645,319.059357 39.183220,315.003693 
	C39.183220,315.003693 39.042435,314.557678 38.978176,314.018433 
	C38.573360,312.993134 38.232807,312.507141 37.892254,312.021118 
	C29.779716,298.636627 19.546007,286.493134 14.780016,271.143799 
	C13.612111,267.382477 10.191916,264.363770 8.692841,260.646515 
	C7.721412,258.237640 8.357063,255.180679 8.886411,252.072845 
	C10.374736,251.466888 11.249270,251.202209 12.371122,251.095749 
	C13.397202,251.852814 14.175962,252.451660 15.029517,253.403076 
	C16.032164,255.085403 17.309847,256.293945 17.820730,257.768219 
	C19.221479,261.810364 20.169237,266.008514 21.542564,270.061462 
	C22.924114,274.138702 24.602089,278.115509 26.294743,282.511780 
	C27.812374,279.862061 28.916899,277.933624 30.291176,276.154419 
	C31.378546,277.205170 32.196167,278.106659 33.013783,279.008148 
z"/>
<path fill="#302B28" opacity="1.000000" stroke="none" 
	d="
M42.132168,84.009583 
	C39.783001,81.412933 36.821968,79.146423 35.207085,76.153564 
	C31.387489,69.074692 28.532536,61.783661 28.791025,53.238987 
	C29.043476,44.893978 27.927759,36.441181 26.665785,28.149376 
	C26.159790,24.824741 23.659786,21.803585 22.439827,18.286045 
	C24.873129,16.286943 26.933987,14.646095 29.437565,13.009265 
	C32.240902,13.015947 34.601521,13.018613 36.717979,13.276237 
	C32.782867,14.418920 32.774410,17.168816 33.107010,20.475117 
	C30.578552,25.109169 31.047140,28.878931 34.972176,32.488731 
	C34.651234,40.009644 33.904312,47.121639 34.154537,54.198380 
	C34.306442,58.494343 35.999657,62.735813 37.010441,67.378143 
	C37.148567,68.395515 37.123634,69.123360 37.429955,69.663254 
	C39.276642,72.918068 40.606964,76.863914 43.332741,79.063034 
	C44.815899,80.259621 48.710819,78.455109 51.521725,78.028969 
	C52.004696,77.955750 52.506554,78.007103 53.305405,78.259903 
	C56.147888,78.689529 58.684658,78.860161 61.221428,79.030792 
	C61.194859,79.468605 61.168289,79.906410 60.640293,80.642700 
	C57.712440,81.284912 55.286018,81.628639 52.449883,81.960815 
	C48.737507,82.636040 45.434837,83.322815 42.132168,84.009583 
z"/>
<path fill="#66625F" opacity="1.000000" stroke="none" 
	d="
M49.832973,145.924835 
	C49.292019,145.151306 48.751068,144.377792 48.219139,143.038391 
	C47.543072,140.993118 46.857975,139.513733 46.172878,138.034348 
	C46.111557,137.267410 46.050236,136.500458 46.400650,135.255463 
	C47.136066,131.115295 47.459751,127.453201 47.809311,123.498306 
	C47.030140,123.360130 46.097549,123.194756 45.164959,123.029381 
	C45.164959,123.029381 45.015743,122.584984 45.029587,122.017639 
	C45.997715,120.631607 46.951992,119.812920 48.211666,118.962830 
	C49.014339,118.611275 49.511612,118.291130 50.006363,117.991058 
	C50.003845,118.011131 49.967041,117.994316 50.377129,117.979034 
	C51.331638,117.903786 51.876064,117.843826 52.690311,118.029282 
	C55.276920,118.958771 57.593704,119.642853 59.992630,120.651428 
	C60.945950,123.061279 61.493389,125.379036 62.777561,127.167915 
	C64.114723,129.030624 66.162956,130.382858 67.900284,131.958298 
	C70.054153,136.280380 68.740379,139.476517 64.003189,141.871246 
	C62.420948,142.248505 61.543461,142.544403 60.400181,142.892258 
	C59.720768,143.279541 59.307144,143.614853 58.525925,144.025208 
	C55.383209,144.708435 52.608093,145.316635 49.832973,145.924835 
z"/>
<path fill="#544E49" opacity="1.000000" stroke="none" 
	d="
M49.893265,172.902130 
	C49.944763,170.403229 50.128983,167.898575 50.020668,165.406616 
	C49.780685,159.885391 49.393806,154.370560 49.480328,148.418732 
	C57.474018,153.152039 59.639069,160.095703 56.873775,168.582153 
	C56.109474,170.927704 55.724380,174.347748 56.890583,176.171616 
	C59.248356,179.858994 60.310158,183.199127 60.420967,187.746704 
	C60.585690,194.506790 62.681084,201.219833 63.799965,208.195923 
	C63.092213,208.958298 62.539288,209.477631 61.549374,210.030426 
	C59.066013,210.021286 57.019646,209.978668 55.044472,209.561340 
	C58.382908,200.535782 54.704464,191.963776 54.745483,183.348221 
	C54.745823,183.277313 53.580830,183.200851 52.729412,183.116104 
	C52.498898,183.105209 52.038101,183.131561 52.025635,182.817108 
	C52.349678,181.997131 52.686188,181.491592 53.246460,180.809891 
	C53.352257,179.422653 53.234287,178.211578 53.093826,176.631561 
	C52.011974,175.142456 50.952621,174.022293 49.893265,172.902130 
z"/>
<path fill="#544E49" opacity="1.000000" stroke="none" 
	d="
M47.906269,118.994232 
	C46.951992,119.812920 45.997715,120.631607 44.981110,121.788315 
	C40.614323,116.001343 40.824402,108.995598 41.161835,101.220695 
	C42.245266,97.880928 43.252899,95.344337 43.967995,92.727814 
	C44.072021,92.347160 42.777489,91.584290 42.130112,90.998283 
	C42.118000,88.928337 42.105888,86.858383 42.112968,84.399010 
	C45.434837,83.322815 48.737507,82.636040 52.766167,82.141800 
	C54.931648,82.755409 56.371132,83.176498 57.864685,83.613403 
	C57.104168,84.983452 56.484520,86.099731 55.844765,87.475632 
	C55.820129,88.082024 55.815605,88.428802 55.492195,88.827621 
	C54.155029,89.104477 53.136753,89.329292 51.667042,89.582520 
	C50.889526,91.870323 50.189190,94.149620 50.307999,96.385376 
	C50.655090,102.917000 51.329033,109.431267 51.582939,116.038589 
	C50.849686,116.748009 50.408363,117.371162 49.967041,117.994316 
	C49.967041,117.994316 50.003845,118.011131 49.703499,118.024567 
	C48.904190,118.356743 48.405228,118.675491 47.906269,118.994232 
M46.360565,90.475578 
	C46.360565,90.475578 46.490646,90.399307 46.360565,90.475578 
z"/>
<path fill="#44504C" opacity="1.000000" stroke="none" 
	d="
M79.151718,224.737045 
	C72.792755,225.495163 66.433800,226.253296 59.306198,227.044098 
	C58.024342,227.389923 57.511131,227.703064 56.619179,227.990936 
	C55.494938,227.828384 54.749435,227.691055 53.991364,227.395782 
	C53.978790,227.237823 53.941429,226.923126 53.781490,226.626511 
	C49.754410,224.913467 45.887264,223.497040 41.625996,222.071106 
	C39.160641,222.383972 37.089417,222.706360 34.651234,222.968079 
	C29.949795,220.472168 26.262991,220.143250 23.960436,225.674377 
	C23.655191,226.407608 22.066250,226.606445 21.053528,226.682083 
	C21.010538,225.817154 20.985832,225.322922 20.979038,224.474533 
	C21.718554,222.352631 22.440157,220.584854 23.534622,218.870560 
	C36.837284,214.643677 49.377399,214.721313 62.036713,220.666397 
	C65.663261,222.369492 70.676422,221.119949 75.369354,221.223801 
	C76.104652,221.250397 76.524368,221.277435 77.121696,221.548492 
	C77.916771,222.774017 78.534241,223.755539 79.151718,224.737045 
z"/>
<path fill="#252422" opacity="1.000000" stroke="none" 
	d="
M68.923538,320.980103 
	C69.285378,324.751343 67.424973,326.268066 62.474876,325.327240 
	C64.442863,328.347290 65.704819,330.283875 67.043732,332.552979 
	C66.289009,332.899475 65.457321,332.913422 64.209854,332.872437 
	C55.923340,323.931000 54.952515,312.073700 50.596470,301.677917 
	C50.127651,300.559082 51.792656,297.256012 52.909298,297.015503 
	C55.756065,296.402252 58.863617,296.831360 61.842274,297.107788 
	C62.665348,297.184204 63.402348,298.187958 64.518593,299.201721 
	C61.752357,307.895966 63.449894,316.808319 68.923538,320.980103 
z"/>
<path fill="#76898B" opacity="1.000000" stroke="none" 
	d="
M95.380974,246.767792 
	C96.814041,251.899353 92.229469,251.387146 89.043777,252.757401 
	C82.191521,249.404358 76.006844,246.106949 69.565811,242.588348 
	C68.173225,242.175797 67.037003,241.984406 65.986008,241.509491 
	C66.092232,238.597000 66.113243,235.968033 66.424927,233.261551 
	C67.135162,232.794556 67.554733,232.405090 68.257370,231.975830 
	C68.730652,231.924713 68.920883,231.913391 69.111107,231.902084 
	C78.838760,233.372330 86.918686,238.680481 95.326202,243.211502 
	C95.624161,243.372086 95.615982,244.100754 95.284515,244.754272 
	C92.620590,244.228806 90.422630,243.513702 88.177567,242.448639 
	C83.703590,238.199570 78.829979,235.353409 72.345245,236.155334 
	C77.460655,238.567093 82.576065,240.978851 87.757660,243.731781 
	C89.121689,245.766449 90.419525,247.459946 91.734894,249.176300 
	C93.298721,248.143265 94.339844,247.455536 95.380974,246.767792 
z"/>
<path fill="#44504C" opacity="1.000000" stroke="none" 
	d="
M36.962135,13.021278 
	C34.601521,13.018613 32.240902,13.015947 29.161606,12.802013 
	C27.485029,10.789983 26.527136,8.989222 25.635832,7.313646 
	C23.520670,8.009913 21.864544,8.555077 20.208418,9.100239 
	C19.365236,7.728869 18.522057,6.357499 17.094870,4.036286 
	C29.824644,4.036286 42.000725,4.036286 54.643131,4.423576 
	C56.184669,6.439167 57.259888,8.067469 57.970184,9.910316 
	C53.746189,10.758783 49.887123,11.392702 45.603874,12.017317 
	C42.440510,12.345768 39.701321,12.683523 36.962135,13.021278 
z"/>
<path fill="#787071" opacity="1.000000" stroke="none" 
	d="
M63.954796,207.952896 
	C62.681084,201.219833 60.585690,194.506790 60.420967,187.746704 
	C60.310158,183.199127 59.248356,179.858994 56.890583,176.171616 
	C55.724380,174.347748 56.109474,170.927704 56.873775,168.582153 
	C59.639069,160.095703 57.474018,153.152039 49.546520,147.951263 
	C49.238842,147.349792 49.278465,146.781403 49.575531,146.068939 
	C52.608093,145.316635 55.383209,144.708435 58.571434,144.449890 
	C60.657990,159.165726 62.358795,173.528778 63.990822,187.899673 
	C64.604805,193.306152 65.178558,198.723755 65.495842,204.152359 
	C65.567886,205.384979 64.498688,206.684280 63.954796,207.952896 
z"/>
<path fill="#BEC0B7" opacity="1.000000" stroke="none" 
	d="
M58.335106,9.695768 
	C57.259888,8.067469 56.184669,6.439167 55.117996,4.466330 
	C59.250084,4.121794 63.373634,4.121794 68.746994,4.121794 
	C68.479240,8.212122 68.144424,12.075194 67.990456,15.945461 
	C67.690933,23.474266 67.335091,31.006510 67.306702,38.538475 
	C67.286911,43.787403 67.831284,49.036255 68.012772,54.288971 
	C68.121727,57.442047 68.388557,60.659534 67.914101,63.744999 
	C67.337128,67.497116 66.054924,71.140793 64.762970,74.749161 
	C64.448143,74.666931 64.429985,74.550339 64.417747,74.180298 
	C64.919090,69.101341 65.604019,64.402077 65.870438,59.679207 
	C65.994606,57.478138 65.307640,55.231316 65.014549,52.585972 
	C65.504982,50.629131 66.431259,49.068340 66.355408,47.557880 
	C65.976959,40.021534 65.335289,32.498409 64.888000,24.529648 
	C64.989784,20.565660 64.989784,17.042656 64.989784,13.503716 
	C63.024498,12.379138 60.679802,11.037453 58.335106,9.695768 
z"/>
<path fill="#BEC0B7" opacity="1.000000" stroke="none" 
	d="
M84.609436,332.858276 
	C83.419930,326.462494 82.672913,320.133789 82.445648,313.366821 
	C84.061134,313.124573 85.156868,313.320526 86.193176,313.908447 
	C86.365448,317.000305 86.597137,319.700165 86.828827,322.400055 
	C87.484940,322.362762 88.141060,322.325500 88.797173,322.288239 
	C88.797173,319.637604 88.797173,316.987000 89.071243,314.182434 
	C89.873367,313.689606 90.401428,313.350677 90.929482,313.011749 
	C92.509987,319.319763 94.090485,325.627777 95.918915,332.925323 
	C91.985794,332.925323 88.518860,332.925323 84.609436,332.858276 
z"/>
<path fill="#DEDECF" opacity="1.000000" stroke="none" 
	d="
M84.781906,262.104828 
	C87.362831,267.867096 89.480576,273.592102 89.116409,280.222656 
	C88.813759,285.733337 89.881783,291.319336 89.680946,296.908203 
	C88.402443,296.658936 87.785645,296.373352 87.001953,295.694763 
	C86.541756,291.864624 86.426208,288.399841 85.896545,284.999573 
	C85.502419,282.469452 84.710770,279.973358 83.847466,277.550751 
	C82.574120,273.977417 80.673531,270.582336 79.779182,266.930359 
	C78.582718,262.044708 79.824837,261.078278 84.781906,262.104828 
z"/>
<path fill="#908885" opacity="1.000000" stroke="none" 
	d="
M84.845734,261.730103 
	C79.824837,261.078278 78.582718,262.044708 79.779182,266.930359 
	C80.673531,270.582336 82.574120,273.977417 83.847466,277.550751 
	C84.710770,279.973358 85.502419,282.469452 85.896545,284.999573 
	C86.426208,288.399841 86.541756,291.864624 86.853622,296.007233 
	C85.590607,298.665802 84.309029,300.618805 82.765831,302.970520 
	C82.434677,301.777649 82.191040,300.900024 81.999718,299.638794 
	C81.997917,298.485016 81.943802,297.714813 81.906967,296.727173 
	C81.924248,296.509705 81.832794,296.083130 81.769760,295.679565 
	C80.232094,285.111908 78.757477,274.947784 77.197586,264.195862 
	C76.092728,265.548737 75.498032,266.276917 74.903336,267.005127 
	C74.638756,266.759064 74.374168,266.513000 74.142120,265.769531 
	C75.583778,263.508820 76.992897,261.745483 78.779007,259.979187 
	C81.021606,260.187988 82.887230,260.399780 84.752853,260.611542 
	C84.805092,260.859528 84.857323,261.107483 84.845734,261.730103 
z"/>
<path fill="#EEF1E6" opacity="1.000000" stroke="none" 
	d="
M60.665974,142.840286 
	C61.543461,142.544403 62.420948,142.248505 63.665615,141.976196 
	C65.629448,154.518433 67.238449,167.035553 68.814888,179.556778 
	C69.261269,183.102280 69.670692,186.654449 69.995491,190.212845 
	C70.691879,197.842072 71.322067,205.477341 71.686218,213.486755 
	C70.892426,213.583832 70.391785,213.304306 69.839684,212.613022 
	C69.530594,211.595337 69.112808,211.008224 69.039070,210.380692 
	C67.671013,198.738770 66.421104,187.082474 64.985825,175.449036 
	C63.643318,164.567429 62.113407,153.708939 60.665974,142.840286 
z"/>
<path fill="#908885" opacity="1.000000" stroke="none" 
	d="
M55.811081,88.775574 
	C55.815605,88.428802 55.820129,88.082024 56.227642,87.448105 
	C58.072590,86.774979 59.514549,86.388992 60.956505,86.003006 
	C61.260696,86.799629 61.564888,87.596252 61.547642,88.724503 
	C61.079018,89.888290 60.652596,90.786629 60.831493,91.541519 
	C61.759262,95.456345 63.291519,99.281998 63.753792,103.239113 
	C64.306183,107.967667 63.877426,112.803703 64.130051,117.579620 
	C64.190742,118.726952 65.263596,119.820755 65.870956,120.939171 
	C66.468178,124.365654 67.065392,127.792130 67.781448,131.588455 
	C66.162956,130.382858 64.114723,129.030624 62.777561,127.167915 
	C61.493389,125.379036 60.945950,123.061279 60.309113,120.332405 
	C60.706303,115.940514 61.075054,112.186752 60.976994,108.445221 
	C60.867931,104.284210 60.333572,100.134346 59.993568,95.990494 
	C60.002769,96.001366 60.023209,96.021202 59.959629,95.749191 
	C59.588966,95.310432 59.281879,95.143700 58.985897,94.989594 
	C58.996998,95.002228 59.015987,95.030006 59.060925,94.712524 
	C58.732044,93.920502 58.358231,93.445961 57.993511,92.984787 
	C58.002609,92.998154 58.023945,93.022446 57.959671,92.750893 
	C57.587811,92.311478 57.280220,92.143623 56.984119,91.989441 
	C56.995605,92.003128 57.014751,92.033302 57.071350,91.723663 
	C56.807938,90.684921 56.487930,89.955811 56.078911,89.113770 
	C55.989895,89.000832 55.811081,88.775574 55.811081,88.775574 
z"/>
<path fill="#1C1D19" opacity="1.000000" stroke="none" 
	d="
M61.546875,78.940971 
	C58.684658,78.860161 56.147888,78.689529 53.322594,77.891106 
	C52.993645,75.503220 52.953220,73.743118 52.932632,71.525063 
	C52.256165,64.333221 51.559860,57.599331 50.906906,50.666870 
	C50.950253,50.468296 51.082008,50.083740 51.413357,50.014908 
	C52.536377,49.652325 53.328045,49.358574 54.405975,48.973137 
	C59.845459,46.363537 57.602783,51.535263 58.669510,53.137970 
	C57.285782,59.161808 56.181519,65.023254 55.110306,71.269028 
	C57.021191,76.911003 57.504490,77.061775 64.429985,74.550339 
	C64.429985,74.550339 64.448143,74.666931 64.390228,74.677979 
	C63.512310,76.076408 62.692314,77.463776 61.546875,78.940971 
z"/>
<path fill="#EEF1E6" opacity="1.000000" stroke="none" 
	d="
M81.947403,300.022400 
	C82.191040,300.900024 82.434677,301.777649 82.765831,302.970520 
	C84.309029,300.618805 85.590607,298.665802 87.020515,296.400269 
	C87.785645,296.373352 88.402443,296.658936 89.274048,296.925415 
	C89.522446,297.744049 89.516045,298.581818 89.126839,300.030609 
	C89.176468,302.457397 89.608910,304.273163 90.041351,306.088898 
	C90.342957,308.128204 90.644569,310.167511 90.937836,312.609283 
	C90.401428,313.350677 89.873367,313.689606 88.843880,314.003235 
	C87.645836,313.824097 86.949219,313.670288 86.252602,313.516479 
	C85.156868,313.320526 84.061134,313.124573 82.546478,312.932404 
	C81.356499,309.350616 80.585449,305.765015 79.964020,301.522247 
	C80.724884,300.584167 81.336143,300.303284 81.947403,300.022400 
z"/>
<path fill="#5B5957" opacity="1.000000" stroke="none" 
	d="
M20.961124,224.828674 
	C20.985832,225.322922 21.010538,225.817154 20.977703,227.031952 
	C17.988045,235.480835 15.055928,243.209183 12.123808,250.937531 
	C11.249270,251.202209 10.374736,251.466888 9.174345,251.847183 
	C9.542984,249.794891 10.016279,247.523422 10.973688,245.478638 
	C13.778749,239.487717 11.772799,233.286163 11.880635,227.207153 
	C12.002728,220.324509 11.350954,213.429871 11.132401,206.537384 
	C11.103073,205.612488 11.639056,204.669662 12.305691,203.420227 
	C13.121689,203.153015 13.545258,203.200729 14.027571,203.525269 
	C14.437603,204.244919 14.788892,204.687759 14.951952,205.462494 
	C11.578639,215.359268 13.419248,224.871628 13.711388,234.400162 
	C14.217413,234.429245 14.723438,234.458344 15.229463,234.487427 
	C17.140017,231.267838 19.050571,228.048264 20.961124,224.828674 
z"/>
<path fill="#908885" opacity="1.000000" stroke="none" 
	d="
M13.968824,203.248428 
	C13.545258,203.200729 13.121689,203.153015 12.386991,203.031509 
	C15.553947,198.295593 18.630560,193.251724 22.610182,189.066528 
	C27.762484,183.648041 33.216900,178.259933 41.613091,177.418274 
	C42.065392,178.234421 42.109394,178.660202 41.873001,179.310043 
	C38.513412,181.053070 34.863400,181.962540 32.465137,184.208588 
	C26.014084,190.250229 20.097555,196.862625 13.968824,203.248428 
z"/>
<path fill="#939995" opacity="1.000000" stroke="none" 
	d="
M85.182053,260.651917 
	C82.887230,260.399780 81.021606,260.187988 78.661438,259.650818 
	C76.809204,258.504913 75.451508,257.684479 73.983818,256.532623 
	C71.563240,254.385040 69.252655,252.568848 67.227768,250.556137 
	C72.741425,252.104935 77.945709,253.927277 83.212296,255.547012 
	C84.725815,256.012512 86.419159,255.893295 88.304169,255.985077 
	C88.946632,255.905930 89.314987,255.883865 89.683342,255.861786 
	C89.765709,257.028564 89.848076,258.195343 89.698929,259.757324 
	C89.268036,260.268127 89.122360,260.431610 89.030403,260.642975 
	C87.890686,260.659424 86.750977,260.675842 85.182053,260.651917 
z"/>
<path fill="#DEDECF" opacity="1.000000" stroke="none" 
	d="
M89.761688,255.555237 
	C89.314987,255.883865 88.946632,255.905930 88.038147,255.769623 
	C81.914604,253.094543 76.346977,250.541885 70.738968,248.081238 
	C68.851562,247.253067 66.861580,246.658737 64.811005,245.612564 
	C64.999451,244.535721 65.157654,243.292419 65.617302,243.168640 
	C66.954224,242.808655 68.411873,242.897018 69.822166,242.809525 
	C76.006844,246.106949 82.191521,249.404358 88.690041,252.860718 
	C89.282600,253.762665 89.561317,254.505676 89.761688,255.555237 
z"/>
<path fill="#D2CDC9" opacity="1.000000" stroke="none" 
	d="
M66.053558,120.585281 
	C65.263596,119.820755 64.190742,118.726952 64.130051,117.579620 
	C63.877426,112.803703 64.306183,107.967667 63.753792,103.239113 
	C63.291519,99.281998 61.759262,95.456345 60.831493,91.541519 
	C60.652596,90.786629 61.079018,89.888290 61.530212,89.065964 
	C63.096439,93.094116 64.982216,97.037521 65.475967,101.148125 
	C66.232780,107.448746 66.031052,113.864502 66.053558,120.585281 
z"/>
<path fill="#787071" opacity="1.000000" stroke="none" 
	d="
M20.131735,9.500532 
	C21.864544,8.555077 23.520670,8.009913 25.635832,7.313646 
	C26.527136,8.989222 27.485029,10.789983 28.718884,12.797997 
	C26.933987,14.646095 24.873129,16.286943 22.462313,17.903700 
	C21.426586,15.220015 20.740818,12.560420 20.131735,9.500532 
z"/>
<path fill="#12674A" opacity="1.000000" stroke="none" 
	d="
M799.637756,206.173965 
	C799.960205,225.973068 799.969971,246.069107 799.965088,266.644043 
	C799.647827,266.564789 799.079773,266.005981 799.081116,265.448578 
	C799.129333,245.789246 799.230957,226.130081 799.637756,206.173965 
z"/>
<path fill="#76898B" opacity="1.000000" stroke="none" 
	d="
M69.891144,213.024780 
	C70.391785,213.304306 70.892426,213.583832 71.678093,213.922745 
	C75.661949,214.687149 79.360779,215.392166 83.790253,216.236450 
	C82.098991,219.559067 80.882240,221.949478 79.408600,224.538452 
	C78.534241,223.755539 77.916771,222.774017 77.258453,221.217773 
	C79.591461,217.924744 78.503746,216.508545 75.376617,216.193039 
	C73.585632,216.012344 71.748901,216.285156 69.679253,216.160049 
	C68.483261,215.160156 67.540779,214.353989 66.698288,213.411438 
	C66.798286,213.275085 66.998283,213.002350 67.360123,212.999451 
	C68.445015,213.005966 69.168076,213.015366 69.891144,213.024780 
z"/>
<path fill="#787071" opacity="1.000000" stroke="none" 
	d="
M42.153397,179.085983 
	C42.109394,178.660202 42.065392,178.234421 41.996155,177.488602 
	C44.380596,175.796036 46.790264,174.423508 49.546600,172.976562 
	C50.952621,174.022293 52.011974,175.142456 52.765259,176.514893 
	C49.023926,177.540100 45.588661,178.313049 42.153397,179.085983 
z"/>
<path fill="#D2CDC9" opacity="1.000000" stroke="none" 
	d="
M88.224663,242.798599 
	C90.422630,243.513702 92.620590,244.228806 95.128448,245.086884 
	C95.464127,245.574951 95.489914,245.920029 95.448334,246.516449 
	C94.339844,247.455536 93.298721,248.143265 91.734894,249.176300 
	C90.419525,247.459946 89.121689,245.766449 87.886078,243.579376 
	C87.948303,243.085800 88.224663,242.798599 88.224663,242.798599 
z"/>
<path fill="#D2CDC9" opacity="1.000000" stroke="none" 
	d="
M61.034824,85.590622 
	C59.514549,86.388992 58.072590,86.774979 56.247749,87.188492 
	C56.484520,86.099731 57.104168,84.983452 57.864685,83.613403 
	C56.371132,83.176498 54.931648,82.755409 53.175877,82.153343 
	C55.286018,81.628639 57.712440,81.284912 60.571846,80.964691 
	C61.040932,82.384872 61.077038,83.781548 61.034824,85.590622 
z"/>
<path fill="#12674A" opacity="1.000000" stroke="none" 
	d="
M799.637756,176.173965 
	C799.960205,185.306442 799.969971,194.735840 799.965088,204.644119 
	C799.623047,202.277100 799.037842,199.432800 799.019958,196.584946 
	C798.977722,189.881165 799.206116,183.175674 799.637756,176.173965 
z"/>
<path fill="#787071" opacity="1.000000" stroke="none" 
	d="
M45.104721,123.468063 
	C46.097549,123.194756 47.030140,123.360130 47.809311,123.498306 
	C47.459751,127.453201 47.136066,131.115295 46.468750,134.875214 
	C45.764900,131.284271 45.404690,127.595512 45.104721,123.468063 
z"/>
<path fill="#12674A" opacity="1.000000" stroke="none" 
	d="
M799.637695,268.174042 
	C799.960144,276.306458 799.969971,284.735809 799.965088,293.644043 
	C799.623047,289.974152 799.114380,285.829590 799.017883,281.675446 
	C798.915894,277.278687 799.206116,272.872864 799.637695,268.174042 
z"/>
<path fill="#908885" opacity="1.000000" stroke="none" 
	d="
M42.094387,91.395180 
	C42.777489,91.584290 44.072021,92.347160 43.967995,92.727814 
	C43.252899,95.344337 42.245266,97.880928 41.160080,100.762108 
	C41.345146,97.984680 41.701904,94.888374 42.094387,91.395180 
z"/>
<path fill="#4E5254" opacity="1.000000" stroke="none" 
	d="
M69.051285,231.537369 
	C68.920883,231.913391 68.730652,231.924713 67.902878,231.875198 
	C63.842861,230.548309 60.420387,229.282257 56.997917,228.016190 
	C57.511131,227.703064 58.024342,227.389923 58.850170,227.061493 
	C62.439011,228.421677 65.715240,229.797165 69.051285,231.537369 
z"/>
<path fill="#66625F" opacity="1.000000" stroke="none" 
	d="
M39.149734,315.391907 
	C40.450645,319.059357 41.718067,323.115021 42.972553,327.607910 
	C41.678490,323.956787 40.397369,319.868439 39.149734,315.391907 
z"/>
<path fill="#12674A" opacity="1.000000" stroke="none" 
	d="
M799.637756,295.173950 
	C799.834717,301.680389 799.718994,308.483643 799.362854,315.613831 
	C799.189941,309.117401 799.257568,302.294128 799.637756,295.173950 
z"/>
<path fill="#66625F" opacity="1.000000" stroke="none" 
	d="
M42.977196,328.412659 
	C44.107174,329.205078 45.269836,330.371521 46.667709,331.753815 
	C46.902920,331.969666 46.929482,332.383301 46.931206,332.590332 
	C43.637447,333.404877 43.358566,331.061646 42.977196,328.412659 
z"/>
<path fill="#DEDECF" opacity="1.000000" stroke="none" 
	d="
M90.412796,305.949127 
	C89.608910,304.273163 89.176468,302.457397 88.943909,300.411133 
	C89.690605,302.056885 90.237419,303.933105 90.412796,305.949127 
z"/>
<path fill="#787071" opacity="1.000000" stroke="none" 
	d="
M46.120522,138.388550 
	C46.857975,139.513733 47.543072,140.993118 48.099674,142.772827 
	C47.336842,141.629684 46.702503,140.186203 46.120522,138.388550 
z"/>
<path fill="#66625F" opacity="1.000000" stroke="none" 
	d="
M37.953407,312.324402 
	C38.232807,312.507141 38.573360,312.993134 38.940945,313.787537 
	C38.650166,313.606537 38.332363,313.117096 37.953407,312.324402 
z"/>
<path fill="#908885" opacity="1.000000" stroke="none" 
	d="
M89.253403,260.726196 
	C89.122360,260.431610 89.268036,260.268127 89.619751,260.085510 
	C89.947960,260.384796 89.849403,260.648407 89.253403,260.726196 
z"/>
<path fill="#000000" opacity="1.000000" stroke="none" 
	d="
M182.149597,165.543167 
	C191.133301,198.297958 199.937332,230.759354 208.855286,263.640808 
	C191.165680,263.640808 173.815979,263.640808 155.804306,263.640808 
	C157.030594,258.664764 158.111862,254.064789 159.299545,249.492462 
	C166.598434,221.393341 173.921204,193.300446 181.245972,165.208054 
	C181.269211,165.118942 181.451385,164.997513 181.535187,165.013992 
	C181.689575,165.044342 181.826004,165.166092 182.149597,165.543167 
z"/>
<path fill="#1C1D19" opacity="1.000000" stroke="none" 
	d="
M74.093811,256.864014 
	C75.451508,257.684479 76.809204,258.504913 78.284462,259.653748 
	C76.992897,261.745483 75.583778,263.508820 73.983627,265.546265 
	C69.949638,267.599548 68.467964,270.290253 69.579239,274.648163 
	C70.049690,276.493011 69.205544,278.686005 68.900040,280.711914 
	C68.633209,282.481354 68.046219,284.233826 68.012924,286.001587 
	C67.883713,292.863403 67.779366,299.731659 67.942345,306.590942 
	C68.049881,311.116455 68.629913,315.630737 68.960960,320.565063 
	C63.449894,316.808319 61.752357,307.895966 64.876160,299.238007 
	C64.936401,295.456757 64.978828,292.074707 64.983444,287.869965 
	C64.210854,283.165314 63.476070,279.283295 62.924393,275.030945 
	C63.025398,270.085358 62.943298,265.510101 63.035442,260.636353 
	C66.159142,257.053833 69.549820,255.152191 74.093811,256.864014 
z"/>
<path fill="#322D2F" opacity="1.000000" stroke="none" 
	d="
M51.998550,268.988434 
	C53.824814,275.376434 55.683304,281.755493 57.452953,288.159149 
	C57.856529,289.619568 58.621544,292.069855 58.055698,292.487701 
	C56.768967,293.437988 54.698490,293.874023 53.058361,293.660461 
	C51.002476,293.392761 49.094837,292.144226 47.058716,291.534424 
	C42.805023,290.260468 42.720940,287.369110 43.431335,283.691132 
	C44.058117,280.446075 44.041904,277.076813 44.215370,273.065979 
	C46.087151,270.247437 48.053158,268.125305 50.348259,266.077667 
	C51.117752,267.097565 51.558147,268.042999 51.998550,268.988434 
z"/>
<path fill="#3D3C3C" opacity="1.000000" stroke="none" 
	d="
M50.019165,266.003204 
	C48.053158,268.125305 46.087151,270.247437 44.041466,272.698486 
	C40.843216,274.574921 37.724640,276.122375 34.312473,277.462250 
	C36.283051,273.728424 38.797222,270.334778 40.753986,266.645508 
	C43.845463,260.816895 51.429504,257.357391 50.391472,249.194794 
	C53.129234,250.184464 55.523525,251.147659 58.122231,252.394165 
	C58.938210,254.397873 59.549770,256.118286 59.720711,257.874146 
	C55.924988,258.397278 52.569885,258.885010 48.982506,259.406464 
	C49.410305,262.128754 49.714737,264.065979 50.019165,266.003204 
z"/>
<path fill="#5B5957" opacity="1.000000" stroke="none" 
	d="
M50.048008,249.168320 
	C51.429504,257.357391 43.845463,260.816895 40.753986,266.645508 
	C38.797222,270.334778 36.283051,273.728424 34.015549,277.625580 
	C33.869358,278.290436 33.672188,278.541779 33.217247,278.879333 
	C32.196167,278.106659 31.378546,277.205170 30.294460,275.900940 
	C30.030228,275.329254 30.032457,275.160309 30.283154,274.730042 
	C31.471512,271.725739 32.115437,268.831635 33.420567,266.275116 
	C35.383331,262.430420 37.808983,258.822021 40.372948,255.032379 
	C43.776588,252.602325 46.845119,250.253052 49.945580,248.220093 
	C50.001011,248.747040 50.024509,248.957672 50.048008,249.168320 
z"/>
<path fill="#302B28" opacity="1.000000" stroke="none" 
	d="
M50.348259,266.077667 
	C49.714737,264.065979 49.410305,262.128754 48.982506,259.406464 
	C52.569885,258.885010 55.924988,258.397278 60.009346,257.983826 
	C61.446133,259.016998 62.153667,259.975922 62.861198,260.934845 
	C62.943298,265.510101 63.025398,270.085358 62.655121,274.804016 
	C60.404198,271.958557 58.605648,268.969696 56.118065,264.835785 
	C55.890041,267.119263 55.801353,268.007446 55.712669,268.895569 
	C54.784283,268.924072 53.855896,268.952576 52.463028,268.984741 
	C51.558147,268.042999 51.117752,267.097565 50.348259,266.077667 
z"/>
<path fill="#BEC0B7" opacity="1.000000" stroke="none" 
	d="
M55.959961,269.096069 
	C55.801353,268.007446 55.890041,267.119263 56.118065,264.835785 
	C58.605648,268.969696 60.404198,271.958557 62.472015,275.174377 
	C63.476070,279.283295 64.210854,283.165314 64.918762,287.453644 
	C62.527512,288.150543 58.259636,283.983490 59.397335,281.664856 
	C62.050869,276.256836 58.395237,273.099213 55.959961,269.096069 
z"/>
<path fill="#DEDECF" opacity="1.000000" stroke="none" 
	d="
M81.999710,299.638794 
	C81.336143,300.303284 80.724884,300.584167 79.907974,301.146606 
	C78.939339,297.113068 78.046761,292.816040 77.443123,288.478790 
	C76.490845,281.636444 75.732613,274.767059 74.897781,267.457123 
	C75.498032,266.276917 76.092728,265.548737 77.197586,264.195862 
	C78.757477,274.947784 80.232094,285.111908 81.654327,295.770935 
	C81.457855,296.568298 81.553764,296.794556 81.889687,296.944611 
	C81.943802,297.714813 81.997917,298.485016 81.999710,299.638794 
z"/>
<path fill="#3D3C3C" opacity="1.000000" stroke="none" 
	d="
M12.371126,251.095749 
	C15.055928,243.209183 17.988045,235.480835 20.995987,227.402618 
	C22.066250,226.606445 23.655191,226.407608 23.960436,225.674377 
	C26.262991,220.143250 29.949795,220.472168 34.482750,223.257935 
	C28.630362,229.462204 26.928293,237.282928 24.777275,245.245117 
	C21.351885,248.008194 18.153301,250.529343 14.954721,253.050507 
	C14.175962,252.451660 13.397202,251.852814 12.371126,251.095749 
z"/>
<path fill="#4D4543" opacity="1.000000" stroke="none" 
	d="
M15.029515,253.403076 
	C18.153301,250.529343 21.351885,248.008194 25.154572,245.304596 
	C28.507744,245.089890 31.256815,245.057632 33.993492,245.395538 
	C31.886707,248.272552 29.853546,250.833954 27.680803,253.270905 
	C25.481153,255.738022 23.143412,258.082031 19.774906,261.629028 
	C27.938789,261.169128 27.286066,266.059509 28.055864,270.098969 
	C28.378870,271.793884 29.355310,273.364319 30.034683,274.991333 
	C30.032457,275.160309 30.030228,275.329254 30.024712,275.751709 
	C28.916899,277.933624 27.812374,279.862061 26.294743,282.511780 
	C24.602089,278.115509 22.924114,274.138702 21.542564,270.061462 
	C20.169237,266.008514 19.221479,261.810364 17.820730,257.768219 
	C17.309847,256.293945 16.032164,255.085403 15.029515,253.403076 
z"/>
<path fill="#3D3C3C" opacity="1.000000" stroke="none" 
	d="
M36.717979,13.276237 
	C39.701321,12.683523 42.440510,12.345768 45.590050,12.349382 
	C45.993240,13.134423 45.986073,13.578094 45.628311,14.072855 
	C43.003334,16.617245 43.378468,22.291052 45.998085,25.307846 
	C46.004017,26.033443 46.008469,26.448061 45.675507,27.066553 
	C44.988541,29.111715 44.038071,31.080679 44.397289,32.771378 
	C45.697540,38.891136 47.437679,44.917435 49.002167,51.309772 
	C49.015118,52.080761 49.037708,52.520977 48.737724,53.116486 
	C42.133781,56.327198 42.259327,56.287773 44.428429,63.195347 
	C44.898361,64.691856 44.545113,66.863258 43.706165,68.167473 
	C43.323368,68.762566 40.827671,68.074776 39.311821,67.833572 
	C38.517361,67.707153 37.769413,67.288460 37.000458,67.001762 
	C35.999657,62.735813 34.306442,58.494343 34.154537,54.198380 
	C33.904312,47.121639 34.651234,40.009644 35.195412,32.241547 
	C35.600231,28.877665 36.099014,26.153669 35.834927,23.505762 
	C35.714359,22.296869 34.089214,21.238031 33.146473,20.111135 
	C32.774410,17.168816 32.782867,14.418920 36.717979,13.276237 
z"/>
<path fill="#322D2F" opacity="1.000000" stroke="none" 
	d="
M37.010441,67.378143 
	C37.769413,67.288460 38.517361,67.707153 39.311821,67.833572 
	C40.827671,68.074776 43.323368,68.762566 43.706165,68.167473 
	C44.545113,66.863258 44.898361,64.691856 44.428429,63.195347 
	C42.259327,56.287773 42.133781,56.327198 49.015091,53.384262 
	C50.060764,58.013065 50.376247,62.548023 51.018772,67.036163 
	C51.262772,68.740570 52.259274,70.337242 52.912796,71.983017 
	C52.953220,73.743118 52.993645,75.503220 53.016880,77.632111 
	C52.506554,78.007103 52.004696,77.955750 51.521725,78.028969 
	C48.710819,78.455109 44.815899,80.259621 43.332741,79.063034 
	C40.606964,76.863914 39.276642,72.918068 37.429955,69.663254 
	C37.123634,69.123360 37.148567,68.395515 37.010441,67.378143 
z"/>
<path fill="#544E49" opacity="1.000000" stroke="none" 
	d="
M33.107010,20.475117 
	C34.089214,21.238031 35.714359,22.296869 35.834927,23.505762 
	C36.099014,26.153669 35.600231,28.877665 35.189766,31.817768 
	C31.047140,28.878931 30.578552,25.109169 33.107010,20.475117 
z"/>
<path fill="#939995" opacity="1.000000" stroke="none" 
	d="
M69.839676,212.613007 
	C69.168076,213.015366 68.445015,213.005966 67.150238,212.743256 
	C65.047798,211.658951 63.517078,210.827942 61.986362,209.996948 
	C62.539288,209.477631 63.092213,208.958298 63.799965,208.195923 
	C64.498688,206.684280 65.567886,205.384979 65.495842,204.152359 
	C65.178558,198.723755 64.604805,193.306152 63.990822,187.899673 
	C62.358795,173.528778 60.657990,159.165726 58.939034,144.374847 
	C59.307144,143.614853 59.720768,143.279541 60.400181,142.892258 
	C62.113407,153.708939 63.643318,164.567429 64.985825,175.449036 
	C66.421104,187.082474 67.671013,198.738770 69.039070,210.380692 
	C69.112808,211.008224 69.530594,211.595337 69.839676,212.613007 
z"/>
<path fill="#D2CDC9" opacity="1.000000" stroke="none" 
	d="
M59.984367,95.979630 
	C60.333572,100.134346 60.867931,104.284210 60.976994,108.445221 
	C61.075054,112.186752 60.706303,115.940514 60.226974,120.007904 
	C57.593704,119.642853 55.276920,118.958771 52.619827,117.718521 
	C52.144638,116.759010 52.009754,116.355667 51.874874,115.952332 
	C51.329033,109.431267 50.655090,102.917000 50.307999,96.385376 
	C50.189190,94.149620 50.889526,91.870323 51.620087,90.084259 
	C52.677677,98.432762 53.442802,106.300934 53.936348,114.186096 
	C54.180714,118.090248 56.401257,118.232353 59.984367,117.759109 
	C59.984367,110.440506 59.984367,103.210068 59.984367,95.979630 
z"/>
<path fill="#787071" opacity="1.000000" stroke="none" 
	d="
M51.582939,116.038589 
	C52.009754,116.355667 52.144638,116.759010 52.350006,117.473106 
	C51.876064,117.843826 51.331638,117.903786 50.377129,117.979034 
	C50.408363,117.371162 50.849686,116.748009 51.582939,116.038589 
z"/>
<path fill="#787071" opacity="1.000000" stroke="none" 
	d="
M48.211666,118.962830 
	C48.405228,118.675491 48.904190,118.356743 49.706017,118.004486 
	C49.511612,118.291130 49.014339,118.611275 48.211666,118.962830 
z"/>
<path fill="#322D2F" opacity="1.000000" stroke="none" 
	d="
M20.979036,224.474533 
	C19.050571,228.048264 17.140017,231.267838 15.229463,234.487427 
	C14.723438,234.458344 14.217413,234.429245 13.711388,234.400162 
	C13.419248,224.871628 11.578639,215.359268 15.274746,205.366180 
	C17.412346,203.571228 19.190477,202.347687 20.639700,200.813461 
	C27.553589,193.494019 34.400803,186.140259 44.161720,182.446091 
	C45.812149,181.821472 47.492027,180.914566 48.759815,179.716446 
	C51.157459,177.450562 52.105415,178.893677 53.022694,180.986053 
	C52.686188,181.491592 52.349678,181.997131 52.004486,182.786011 
	C51.995808,183.069351 52.047874,183.015442 51.806343,183.107422 
	C51.381622,183.482101 51.198429,183.764786 51.005226,184.024048 
	C50.995213,184.000641 51.045101,184.010849 50.788418,184.136169 
	C50.359364,184.596542 50.186993,184.931580 49.844963,185.544312 
	C41.098320,192.940826 34.981911,202.057617 28.907112,211.537216 
	C26.929796,214.132690 25.045778,216.474899 23.161758,218.817093 
	C22.440157,220.584854 21.718554,222.352631 20.979036,224.474533 
z"/>
<path fill="#76898B" opacity="1.000000" stroke="none" 
	d="
M23.534622,218.870560 
	C25.045778,216.474899 26.929796,214.132690 29.335758,211.426697 
	C35.223259,210.678192 40.588821,210.293472 46.403496,209.968109 
	C49.559498,209.996994 52.266388,209.966507 54.973274,209.936035 
	C57.019646,209.978668 59.066013,210.021286 61.549374,210.030426 
	C63.517078,210.827942 65.047798,211.658951 66.788399,212.746155 
	C66.998283,213.002350 66.798286,213.275085 66.297531,213.293259 
	C61.848335,212.926712 57.899895,212.541992 53.951458,212.157257 
	C57.113842,214.442444 60.385689,215.904236 63.729294,217.177628 
	C66.423004,218.203506 69.203423,219.001724 72.298004,219.938629 
	C73.451691,220.392288 74.252739,220.808273 75.053787,221.224243 
	C70.676422,221.119949 65.663261,222.369492 62.036713,220.666397 
	C49.377399,214.721313 36.837284,214.643677 23.534622,218.870560 
z"/>
<path fill="#000000" opacity="1.000000" stroke="none" 
	d="
M45.954380,209.908752 
	C40.588821,210.293472 35.223259,210.678192 29.429054,211.173431 
	C34.981911,202.057617 41.098320,192.940826 50.084782,185.393723 
	C50.677876,184.647232 50.861488,184.329041 51.045101,184.010849 
	C51.045101,184.010849 50.995213,184.000641 51.258106,183.947479 
	C51.696625,183.601349 51.872250,183.308395 52.047874,183.015442 
	C52.047874,183.015442 51.995808,183.069351 52.016953,183.100464 
	C52.038101,183.131561 52.498898,183.105209 52.738091,183.549286 
	C52.701622,186.571823 53.381691,190.531982 51.988869,191.495422 
	C45.059834,196.288406 45.968933,203.149841 45.954380,209.908752 
z"/>
<path fill="#322D2F" opacity="1.000000" stroke="none" 
	d="
M46.403496,209.968109 
	C45.968933,203.149841 45.059834,196.288406 51.988869,191.495422 
	C53.381691,190.531982 52.701622,186.571823 52.968605,183.560181 
	C53.580830,183.200851 54.745823,183.277313 54.745483,183.348221 
	C54.704464,191.963776 58.382908,200.535782 55.044472,209.561310 
	C52.266388,209.966507 49.559498,209.996994 46.403496,209.968109 
z"/>
<path fill="#66625F" opacity="1.000000" stroke="none" 
	d="
M53.246456,180.809891 
	C52.105415,178.893677 51.157459,177.450562 48.759815,179.716446 
	C47.492027,180.914566 45.812149,181.821472 44.161720,182.446091 
	C34.400803,186.140259 27.553589,193.494019 20.639700,200.813461 
	C19.190477,202.347687 17.412346,203.571228 15.462975,205.034256 
	C14.788892,204.687759 14.437603,204.244919 14.027567,203.525269 
	C20.097555,196.862625 26.014084,190.250229 32.465137,184.208588 
	C34.863400,181.962540 38.513412,181.053070 41.873001,179.310043 
	C45.588661,178.313049 49.023926,177.540100 52.787750,176.883820 
	C53.234287,178.211578 53.352257,179.422653 53.246456,180.809891 
z"/>
<path fill="#908885" opacity="1.000000" stroke="none" 
	d="
M59.993568,95.990494 
	C59.984367,103.210068 59.984367,110.440506 59.984367,117.759109 
	C56.401257,118.232353 54.180714,118.090248 53.936348,114.186096 
	C53.442802,106.300934 52.677677,98.432762 52.071518,90.055847 
	C53.136753,89.329292 54.155029,89.104477 55.492195,88.827621 
	C55.811081,88.775574 55.989895,89.000832 56.035667,89.429031 
	C56.392544,90.582581 56.703648,91.307945 57.014755,92.033302 
	C57.014751,92.033302 56.995605,92.003128 57.061996,92.254547 
	C57.426907,92.678131 57.725426,92.850288 58.023945,93.022446 
	C58.023945,93.022446 58.002609,92.998154 57.949127,93.301331 
	C58.269093,94.079681 58.642540,94.554840 59.015987,95.030006 
	C59.015987,95.030006 58.996998,95.002228 59.052612,95.261749 
	C59.413223,95.687904 59.718216,95.854553 60.023209,96.021202 
	C60.023209,96.021202 60.002769,96.001366 59.993568,95.990494 
z"/>
<path fill="#908885" opacity="1.000000" stroke="none" 
	d="
M46.425606,90.437439 
	C46.490646,90.399307 46.360565,90.475578 46.425606,90.437439 
z"/>
<path fill="#4E5254" opacity="1.000000" stroke="none" 
	d="
M30.283154,274.730042 
	C29.355310,273.364319 28.378870,271.793884 28.055864,270.098969 
	C27.286066,266.059509 27.938789,261.169128 19.774906,261.629028 
	C23.143412,258.082031 25.481153,255.738022 27.680803,253.270905 
	C29.853546,250.833954 31.886707,248.272552 34.016117,245.175842 
	C34.051136,244.585953 34.066776,244.145020 34.404396,244.045166 
	C35.148945,243.460785 35.686829,243.036407 35.941395,242.481934 
	C37.514446,239.055817 38.577915,235.298386 40.659340,232.225952 
	C43.731617,227.690933 48.874615,227.120377 53.941429,226.923126 
	C53.941429,226.923126 53.978790,227.237823 53.751225,227.572159 
	C53.282654,228.216705 53.041653,228.526932 52.452019,228.950592 
	C50.246227,231.984085 50.473328,233.903015 54.130466,235.380722 
	C55.721897,236.023727 56.617802,238.388123 57.615692,239.978973 
	C57.401794,239.987228 56.973965,240.002853 56.716900,239.785828 
	C54.376415,237.277695 52.252708,236.684433 49.707142,239.036667 
	C46.216076,242.262573 42.511513,245.258331 39.039158,248.503311 
	C36.324360,251.040344 36.819221,253.344849 40.037834,255.113174 
	C37.808983,258.822021 35.383331,262.430420 33.420567,266.275116 
	C32.115437,268.831635 31.471512,271.725739 30.283154,274.730042 
z"/>
<path fill="#302B28" opacity="1.000000" stroke="none" 
	d="
M34.066776,244.145020 
	C34.066776,244.145020 34.051136,244.585953 34.028511,244.805664 
	C31.256815,245.057632 28.507744,245.089890 25.381378,245.062683 
	C26.928293,237.282928 28.630362,229.462204 34.849701,223.318619 
	C37.089417,222.706360 39.160641,222.383972 41.609058,222.433273 
	C39.580151,226.152954 37.128654,229.469681 34.788757,232.863327 
	C33.751942,234.367096 32.222126,236.017883 32.202927,237.617371 
	C32.176899,239.785492 33.386951,241.968430 34.066776,244.145020 
z"/>
<path fill="#252422" opacity="1.000000" stroke="none" 
	d="
M34.404396,244.045166 
	C33.386951,241.968430 32.176899,239.785492 32.202927,237.617371 
	C32.222126,236.017883 33.751942,234.367096 34.788757,232.863327 
	C37.128654,229.469681 39.580151,226.152954 42.003185,222.442780 
	C45.887264,223.497040 49.754410,224.913467 53.781490,226.626511 
	C48.874615,227.120377 43.731617,227.690933 40.659340,232.225952 
	C38.577915,235.298386 37.514446,239.055817 35.941395,242.481934 
	C35.686829,243.036407 35.148945,243.460785 34.404396,244.045166 
z"/>
<path fill="#BEC0B7" opacity="1.000000" stroke="none" 
	d="
M52.800648,228.837143 
	C53.041653,228.526932 53.282654,228.216705 53.763794,227.730118 
	C54.749435,227.691055 55.494938,227.828384 56.619179,227.990936 
	C60.420387,229.282257 63.842861,230.548309 67.619820,231.914978 
	C67.554733,232.405090 67.135162,232.794556 66.008438,233.162354 
	C61.134411,231.706161 56.967529,230.271652 52.800648,228.837143 
z"/>
<path fill="#BEC0B7" opacity="1.000000" stroke="none" 
	d="
M75.369354,221.223816 
	C74.252739,220.808273 73.451691,220.392288 72.159439,219.674347 
	C71.089745,218.366180 70.511253,217.359985 69.932762,216.353775 
	C71.748901,216.285156 73.585632,216.012344 75.376617,216.193039 
	C78.503746,216.508545 79.591461,217.924744 77.080849,220.973755 
	C76.524368,221.277435 76.104652,221.250397 75.369354,221.223816 
z"/>
<path fill="#939995" opacity="1.000000" stroke="none" 
	d="
M52.452019,228.950592 
	C56.967529,230.271652 61.134411,231.706161 65.717773,233.239868 
	C66.113243,235.968033 66.092232,238.597000 65.603470,241.550476 
	C62.700336,241.240234 60.264965,240.605469 57.829594,239.970703 
	C56.617802,238.388123 55.721897,236.023727 54.130466,235.380722 
	C50.473328,233.903015 50.246227,231.984085 52.452019,228.950592 
z"/>
<path fill="#66625F" opacity="1.000000" stroke="none" 
	d="
M57.615692,239.978973 
	C60.264965,240.605469 62.700336,241.240234 65.518250,241.834015 
	C67.037003,241.984406 68.173225,242.175797 69.565811,242.588348 
	C68.411873,242.897018 66.954224,242.808655 65.617302,243.168640 
	C65.157654,243.292419 64.999451,244.535721 64.374199,245.621460 
	C61.484650,245.975327 58.924446,245.975327 56.364239,245.975327 
	C56.285866,246.345367 56.207493,246.715408 56.129120,247.085449 
	C57.089138,247.763489 58.049156,248.441544 58.998970,249.453659 
	C58.631790,250.562103 58.274807,251.336487 57.917820,252.110855 
	C55.523525,251.147659 53.129234,250.184464 50.391472,249.194794 
	C50.024509,248.957672 50.001011,248.747040 50.033104,247.898071 
	C52.383793,244.840775 54.678883,242.421814 56.973969,240.002853 
	C56.973965,240.002853 57.401794,239.987228 57.615692,239.978973 
z"/>
<path fill="#D2CDC9" opacity="1.000000" stroke="none" 
	d="
M87.819885,243.238190 
	C82.576065,240.978851 77.460655,238.567093 72.345245,236.155334 
	C78.829979,235.353409 83.703590,238.199570 88.177567,242.448639 
	C88.224663,242.798599 87.948303,243.085800 87.819885,243.238190 
z"/>
<path fill="#302B28" opacity="1.000000" stroke="none" 
	d="
M45.978909,14.021767 
	C45.986073,13.578094 45.993240,13.134423 46.014229,12.358685 
	C49.887123,11.392702 53.746189,10.758783 57.970184,9.910316 
	C60.679802,11.037453 63.024498,12.379138 64.989784,13.503716 
	C64.989784,17.042656 64.989784,20.565660 64.552322,24.592960 
	C62.962612,25.316380 61.810360,25.535501 61.052277,25.679665 
	C60.860718,22.940882 60.705490,20.721476 60.550259,18.502071 
	C59.025074,19.488066 57.499889,20.474060 55.554359,21.489820 
	C54.607468,23.298687 54.080925,25.077789 53.253151,26.845423 
	C52.352936,26.850504 51.753956,26.867054 51.066818,26.559227 
	C50.501213,25.595457 50.023773,24.956064 49.331650,24.029169 
	C49.157291,25.348757 49.051453,26.149761 48.595684,26.992989 
	C47.779160,27.090353 47.312572,27.145493 46.633598,27.126293 
	C46.421215,27.051956 46.012920,26.862679 46.012920,26.862679 
	C46.008469,26.448061 46.004017,26.033443 46.007271,24.894768 
	C46.002953,20.787729 45.990932,17.404749 45.978909,14.021767 
z"/>
<path fill="#3D3C3C" opacity="1.000000" stroke="none" 
	d="
M55.974705,21.460052 
	C57.499889,20.474060 59.025074,19.488066 60.550259,18.502071 
	C60.705490,20.721476 60.860718,22.940882 61.052277,25.679665 
	C61.810360,25.535501 62.962612,25.316380 64.450546,25.033943 
	C65.335289,32.498409 65.976959,40.021534 66.355408,47.557880 
	C66.431259,49.068340 65.504982,50.629131 64.757996,52.694778 
	C63.982174,53.482086 63.489113,53.741333 62.738426,53.754189 
	C61.303528,53.330387 60.126255,53.152985 58.948978,52.975578 
	C57.602783,51.535263 59.845459,46.363537 54.356331,48.609585 
	C54.634731,46.830585 55.249039,45.323448 55.904556,43.364738 
	C56.730637,36.892769 57.645485,30.883810 58.177341,24.841141 
	C58.270130,23.786901 56.749928,22.590693 55.974705,21.460052 
z"/>
<path fill="#302B28" opacity="1.000000" stroke="none" 
	d="
M62.996048,54.000580 
	C63.489113,53.741333 63.982174,53.482086 64.731781,53.114037 
	C65.307640,55.231316 65.994606,57.478138 65.870438,59.679207 
	C65.604019,64.402077 64.919090,69.101341 64.417747,74.180298 
	C57.504490,77.061775 57.021191,76.911003 55.417889,71.106491 
	C56.422558,68.917007 57.157265,67.276405 57.881893,65.631363 
	C59.589165,61.755558 61.291637,57.877640 62.996048,54.000580 
z"/>
<path fill="#939995" opacity="1.000000" stroke="none" 
	d="
M86.193176,313.908447 
	C86.949219,313.670288 87.645836,313.824097 88.569809,314.157135 
	C88.797173,316.987000 88.797173,319.637604 88.797173,322.288239 
	C88.141060,322.325500 87.484940,322.362762 86.828827,322.400055 
	C86.597137,319.700165 86.365448,317.000305 86.193176,313.908447 
z"/>
<path fill="#EEF1E6" opacity="1.000000" stroke="none" 
	d="
M81.906967,296.727173 
	C81.553764,296.794556 81.457855,296.568298 81.717369,296.174500 
	C81.832794,296.083130 81.924248,296.509705 81.906967,296.727173 
z"/>
<path fill="#D2CDC9" opacity="1.000000" stroke="none" 
	d="
M57.071350,91.723663 
	C56.703648,91.307945 56.392544,90.582581 56.124683,89.541962 
	C56.487930,89.955811 56.807938,90.684921 57.071350,91.723663 
z"/>
<path fill="#D2CDC9" opacity="1.000000" stroke="none" 
	d="
M59.060925,94.712524 
	C58.642540,94.554840 58.269093,94.079681 57.940029,93.287964 
	C58.358231,93.445961 58.732044,93.920502 59.060925,94.712524 
z"/>
<path fill="#D2CDC9" opacity="1.000000" stroke="none" 
	d="
M59.959629,95.749191 
	C59.718216,95.854553 59.413223,95.687904 59.041512,95.249115 
	C59.281879,95.143700 59.588966,95.310432 59.959629,95.749191 
z"/>
<path fill="#D2CDC9" opacity="1.000000" stroke="none" 
	d="
M57.959671,92.750893 
	C57.725426,92.850288 57.426907,92.678131 57.050510,92.240868 
	C57.280220,92.143623 57.587811,92.311478 57.959671,92.750893 
z"/>
<path fill="#787071" opacity="1.000000" stroke="none" 
	d="
M55.863342,43.816311 
	C55.249039,45.323448 54.634731,46.830585 54.070068,48.701271 
	C53.328045,49.358574 52.536377,49.652325 51.375153,49.618355 
	C49.619061,41.927299 48.232521,34.563965 46.845982,27.200634 
	C47.312572,27.145493 47.779160,27.090353 48.628448,27.408768 
	C49.698124,31.780483 50.385101,35.778637 51.072075,39.776794 
	C51.380787,39.722015 51.689495,39.667236 51.998207,39.612461 
	C51.717129,35.369507 51.436054,31.126556 51.154980,26.883604 
	C51.753956,26.867054 52.352936,26.850504 53.413086,27.230240 
	C54.537285,33.023121 55.200314,38.419716 55.863342,43.816311 
z"/>
<path fill="#BEC0B7" opacity="1.000000" stroke="none" 
	d="
M46.633598,27.126295 
	C48.232521,34.563965 49.619061,41.927299 51.043804,49.687187 
	C51.082008,50.083740 50.950253,50.468296 50.600380,50.722351 
	C49.837605,50.977272 49.424702,50.978142 49.011799,50.979004 
	C47.437679,44.917435 45.697540,38.891136 44.397289,32.771378 
	C44.038071,31.080679 44.988541,29.111715 45.675507,27.066553 
	C46.012920,26.862679 46.421215,27.051956 46.633598,27.126295 
z"/>
<path fill="#4D4543" opacity="1.000000" stroke="none" 
	d="
M62.738426,53.754189 
	C61.291637,57.877640 59.589165,61.755558 57.881893,65.631363 
	C57.157265,67.276405 56.422558,68.917007 55.384842,70.722168 
	C56.181519,65.023254 57.285782,59.161808 58.669510,53.137970 
	C60.126255,53.152985 61.303528,53.330387 62.738426,53.754189 
z"/>
<path fill="#5B5957" opacity="1.000000" stroke="none" 
	d="
M49.002167,51.309776 
	C49.424702,50.978142 49.837605,50.977272 50.557034,50.920925 
	C51.559860,57.599331 52.256165,64.333221 52.932632,71.525063 
	C52.259274,70.337242 51.262772,68.740570 51.018772,67.036163 
	C50.376247,62.548023 50.060764,58.013065 49.337662,53.228973 
	C49.037708,52.520977 49.015118,52.080761 49.002167,51.309776 
z"/>
<path fill="#D2CDC9" opacity="1.000000" stroke="none" 
	d="
M59.009171,249.119583 
	C58.049156,248.441544 57.089138,247.763489 56.129120,247.085449 
	C56.207493,246.715408 56.285866,246.345367 56.364239,245.975327 
	C58.924446,245.975327 61.484650,245.975327 64.481659,245.966431 
	C66.861580,246.658737 68.851562,247.253067 70.738968,248.081238 
	C76.346977,250.541885 81.914604,253.094543 87.764038,255.826721 
	C86.419159,255.893295 84.725815,256.012512 83.212296,255.547012 
	C77.945709,253.927277 72.741425,252.104935 66.841049,250.552444 
	C63.782158,250.203354 61.395664,249.661469 59.009171,249.119583 
z"/>
<path fill="#5B5957" opacity="1.000000" stroke="none" 
	d="
M58.998970,249.453659 
	C61.395664,249.661469 63.782158,250.203354 66.555359,250.748947 
	C69.252655,252.568848 71.563240,254.385040 73.983818,256.532623 
	C69.549820,255.152191 66.159142,257.053833 63.035442,260.636353 
	C62.153667,259.975922 61.446133,259.016998 60.449966,257.948364 
	C59.549770,256.118286 58.938210,254.397873 58.122231,252.394165 
	C58.274807,251.336487 58.631790,250.562103 58.998970,249.453659 
z"/>
<path fill="#D2CDC9" opacity="1.000000" stroke="none" 
	d="
M69.679253,216.160049 
	C70.511253,217.359985 71.089745,218.366180 71.806808,219.636658 
	C69.203423,219.001724 66.423004,218.203506 63.729294,217.177628 
	C60.385689,215.904236 57.113842,214.442444 53.951458,212.157257 
	C57.899895,212.541992 61.848335,212.926712 66.197540,213.429626 
	C67.540779,214.353989 68.483261,215.160156 69.679253,216.160049 
z"/>
<path fill="#3D3C3C" opacity="1.000000" stroke="none" 
	d="
M56.716904,239.785828 
	C54.678883,242.421814 52.383793,244.840775 50.001175,247.581757 
	C46.845119,250.253052 43.776588,252.602325 40.372948,255.032379 
	C36.819221,253.344849 36.324360,251.040344 39.039158,248.503311 
	C42.511513,245.258331 46.216076,242.262573 49.707142,239.036667 
	C52.252708,236.684433 54.376415,237.277695 56.716904,239.785828 
z"/>
<path fill="#544E49" opacity="1.000000" stroke="none" 
	d="
M45.628311,14.072855 
	C45.990932,17.404749 46.002953,20.787729 46.005791,24.583790 
	C43.378468,22.291052 43.003334,16.617245 45.628311,14.072855 
z"/>
<path fill="#544E49" opacity="1.000000" stroke="none" 
	d="
M50.788418,184.136169 
	C50.861488,184.329041 50.677876,184.647232 50.254440,185.116028 
	C50.186993,184.931580 50.359364,184.596542 50.788418,184.136169 
z"/>
<path fill="#544E49" opacity="1.000000" stroke="none" 
	d="
M51.806343,183.107422 
	C51.872250,183.308395 51.696625,183.601349 51.268120,183.970886 
	C51.198429,183.764786 51.381622,183.482101 51.806343,183.107422 
z"/>
<path fill="#D2CDC9" opacity="1.000000" stroke="none" 
	d="
M55.904552,43.364738 
	C55.200314,38.419716 54.537285,33.023121 53.714321,27.241711 
	C54.080925,25.077789 54.607468,23.298687 55.554359,21.489819 
	C56.749928,22.590693 58.270130,23.786901 58.177341,24.841141 
	C57.645485,30.883810 56.730637,36.892769 55.904552,43.364738 
z"/>
<path fill="#BEC0B7" opacity="1.000000" stroke="none" 
	d="
M51.066818,26.559227 
	C51.436054,31.126556 51.717129,35.369507 51.998207,39.612461 
	C51.689495,39.667236 51.380787,39.722015 51.072075,39.776794 
	C50.385101,35.778637 49.698124,31.780483 48.978382,27.366545 
	C49.051453,26.149761 49.157291,25.348757 49.331650,24.029169 
	C50.023773,24.956064 50.501213,25.595457 51.066818,26.559227 
z"/>
</svg>